<svg width="261" height="327" fill="none" xmlns="http://www.w3.org/2000/svg">
  <path
    d="M163.92 152.247a1.605 1.605 0 1 0 0-3.21 1.605 1.605 0 0 0 0 3.21ZM168.236 147.932a1.604 1.604 0 1 0 0-3.208 1.604 1.604 0 0 0 0 3.208ZM172.495 143.617a1.604 1.604 0 1 0 .002-3.208 1.604 1.604 0 0 0-.002 3.208ZM176.81 139.302a1.605 1.605 0 1 0 0-3.21 1.605 1.605 0 0 0 0 3.21ZM181.125 135.042a1.605 1.605 0 1 0 0-3.21 1.605 1.605 0 0 0 0 3.21ZM185.441 130.727a1.604 1.604 0 1 0 0-3.208 1.604 1.604 0 0 0 0 3.208ZM189.756 126.412a1.605 1.605 0 1 0-.001-3.21 1.605 1.605 0 0 0 .001 3.21ZM194.071 122.097a1.605 1.605 0 1 0-.001-3.21 1.605 1.605 0 0 0 .001 3.21ZM198.331 117.781a1.604 1.604 0 1 0 0-3.208 1.604 1.604 0 0 0 0 3.208ZM202.646 113.466a1.604 1.604 0 1 0 0-3.208 1.604 1.604 0 0 0 0 3.208ZM206.961 109.206a1.605 1.605 0 1 0 0-3.21 1.605 1.605 0 0 0 0 3.21ZM211.276 104.891a1.605 1.605 0 1 0 0-3.21 1.605 1.605 0 0 0 0 3.21ZM168.236 156.562a1.604 1.604 0 1 0 0-3.208 1.604 1.604 0 0 0 0 3.208ZM172.495 152.247a1.604 1.604 0 1 0 .002-3.208 1.604 1.604 0 0 0-.002 3.208ZM176.81 147.932a1.605 1.605 0 1 0 0-3.21 1.605 1.605 0 0 0 0 3.21ZM181.125 143.617a1.605 1.605 0 1 0 0-3.21 1.605 1.605 0 0 0 0 3.21ZM185.441 139.302a1.604 1.604 0 1 0 0-3.208 1.604 1.604 0 0 0 0 3.208ZM189.756 135.042a1.604 1.604 0 1 0 0-3.208 1.604 1.604 0 0 0 0 3.208ZM194.071 130.727a1.604 1.604 0 1 0 0-3.208 1.604 1.604 0 0 0 0 3.208ZM198.331 126.412a1.605 1.605 0 1 0-.001-3.21 1.605 1.605 0 0 0 .001 3.21ZM202.646 122.097a1.605 1.605 0 1 0-.001-3.21 1.605 1.605 0 0 0 .001 3.21ZM206.961 117.781a1.605 1.605 0 1 0 0-3.21 1.605 1.605 0 0 0 0 3.21ZM211.276 113.466a1.605 1.605 0 1 0 0-3.21 1.605 1.605 0 0 0 0 3.21ZM215.591 109.206a1.605 1.605 0 1 0 0-3.21 1.605 1.605 0 0 0 0 3.21ZM163.92 143.617a1.605 1.605 0 1 0 0-3.21 1.605 1.605 0 0 0 0 3.21ZM168.236 139.302a1.604 1.604 0 1 0 0-3.208 1.604 1.604 0 0 0 0 3.208ZM172.495 135.042a1.604 1.604 0 1 0 .002-3.208 1.604 1.604 0 0 0-.002 3.208ZM176.81 130.727a1.605 1.605 0 1 0 0-3.21 1.605 1.605 0 0 0 0 3.21ZM181.125 126.412a1.606 1.606 0 1 0-.001-3.211 1.606 1.606 0 0 0 .001 3.211ZM185.441 122.097a1.605 1.605 0 1 0-.001-3.21 1.605 1.605 0 0 0 .001 3.21ZM189.756 117.781a1.604 1.604 0 1 0 0-3.208 1.604 1.604 0 0 0 0 3.208ZM194.071 113.466a1.604 1.604 0 1 0 0-3.208 1.604 1.604 0 0 0 0 3.208ZM198.331 109.206a1.604 1.604 0 1 0 0-3.208 1.604 1.604 0 0 0 0 3.208ZM202.646 104.891a1.604 1.604 0 1 0 0-3.208 1.604 1.604 0 0 0 0 3.208ZM163.92 126.412a1.606 1.606 0 1 0-.001-3.211 1.606 1.606 0 0 0 .001 3.211ZM168.236 122.097a1.605 1.605 0 1 0-.001-3.21 1.605 1.605 0 0 0 .001 3.21ZM172.495 117.781a1.604 1.604 0 1 0 .002-3.208 1.604 1.604 0 0 0-.002 3.208ZM176.81 113.466a1.605 1.605 0 1 0 0-3.21 1.605 1.605 0 0 0 0 3.21ZM181.125 109.206a1.605 1.605 0 1 0 0-3.21 1.605 1.605 0 0 0 0 3.21ZM185.441 104.891a1.604 1.604 0 1 0 0-3.208 1.604 1.604 0 0 0 0 3.208ZM163.92 135.042a1.605 1.605 0 1 0 0-3.21 1.605 1.605 0 0 0 0 3.21ZM168.236 130.727a1.604 1.604 0 1 0 0-3.208 1.604 1.604 0 0 0 0 3.208ZM172.495 126.412a1.605 1.605 0 1 0 0-3.21 1.605 1.605 0 0 0 0 3.21ZM176.81 122.097a1.606 1.606 0 1 0-.001-3.211 1.606 1.606 0 0 0 .001 3.211ZM181.125 117.781a1.605 1.605 0 1 0 0-3.21 1.605 1.605 0 0 0 0 3.21ZM185.441 113.466a1.604 1.604 0 1 0 0-3.208 1.604 1.604 0 0 0 0 3.208ZM189.756 109.206a1.604 1.604 0 1 0 0-3.208 1.604 1.604 0 0 0 0 3.208ZM194.071 104.891a1.604 1.604 0 1 0 0-3.208 1.604 1.604 0 0 0 0 3.208ZM163.92 117.781a1.605 1.605 0 1 0 0-3.21 1.605 1.605 0 0 0 0 3.21ZM168.236 113.466a1.604 1.604 0 1 0 0-3.208 1.604 1.604 0 0 0 0 3.208ZM172.495 109.206a1.604 1.604 0 1 0 .002-3.208 1.604 1.604 0 0 0-.002 3.208ZM176.81 104.891a1.605 1.605 0 1 0 0-3.21 1.605 1.605 0 0 0 0 3.21ZM163.92 109.206a1.605 1.605 0 1 0 0-3.21 1.605 1.605 0 0 0 0 3.21ZM168.236 104.891a1.604 1.604 0 1 0 0-3.208 1.604 1.604 0 0 0 0 3.208ZM176.81 165.137a1.605 1.605 0 1 0 0-3.21 1.605 1.605 0 0 0 0 3.21ZM181.125 160.878a1.606 1.606 0 1 0-.001-3.211 1.606 1.606 0 0 0 .001 3.211ZM185.441 156.562a1.604 1.604 0 1 0 0-3.208 1.604 1.604 0 0 0 0 3.208ZM189.756 152.247a1.604 1.604 0 1 0 0-3.208 1.604 1.604 0 0 0 0 3.208ZM194.071 147.932a1.604 1.604 0 1 0 0-3.208 1.604 1.604 0 0 0 0 3.208ZM198.331 143.617a1.604 1.604 0 1 0 0-3.208 1.604 1.604 0 0 0 0 3.208ZM202.646 139.302a1.604 1.604 0 1 0 0-3.208 1.604 1.604 0 0 0 0 3.208ZM206.961 135.042a1.605 1.605 0 1 0 0-3.21 1.605 1.605 0 0 0 0 3.21ZM211.276 130.727a1.605 1.605 0 1 0 0-3.21 1.605 1.605 0 0 0 0 3.21ZM215.591 126.412a1.606 1.606 0 1 0-.001-3.211 1.606 1.606 0 0 0 .001 3.211ZM219.907 122.097a1.605 1.605 0 1 0-.001-3.21 1.605 1.605 0 0 0 .001 3.21ZM224.166 117.781a1.605 1.605 0 1 0 0-3.21 1.605 1.605 0 0 0 0 3.21ZM181.125 169.453a1.606 1.606 0 1 0-.001-3.211 1.606 1.606 0 0 0 .001 3.211ZM185.441 165.137a1.604 1.604 0 1 0 0-3.208 1.604 1.604 0 0 0 0 3.208ZM189.756 160.878a1.605 1.605 0 1 0-.001-3.21 1.605 1.605 0 0 0 .001 3.21ZM194.071 156.562a1.604 1.604 0 1 0 0-3.208 1.604 1.604 0 0 0 0 3.208ZM198.331 152.247a1.604 1.604 0 1 0 0-3.208 1.604 1.604 0 0 0 0 3.208ZM202.646 147.932a1.604 1.604 0 1 0 0-3.208 1.604 1.604 0 0 0 0 3.208ZM206.961 143.617a1.605 1.605 0 1 0 0-3.21 1.605 1.605 0 0 0 0 3.21ZM211.276 139.302a1.605 1.605 0 1 0 0-3.21 1.605 1.605 0 0 0 0 3.21ZM215.591 135.042a1.605 1.605 0 1 0 0-3.21 1.605 1.605 0 0 0 0 3.21ZM219.907 130.727a1.604 1.604 0 1 0 0-3.208 1.604 1.604 0 0 0 0 3.208ZM224.166 126.412a1.606 1.606 0 1 0-.001-3.211 1.606 1.606 0 0 0 .001 3.211ZM228.481 122.097a1.606 1.606 0 1 0-.001-3.211 1.606 1.606 0 0 0 .001 3.211ZM172.495 160.878a1.605 1.605 0 1 0 0-3.21 1.605 1.605 0 0 0 0 3.21ZM176.81 156.562a1.605 1.605 0 1 0 0-3.21 1.605 1.605 0 0 0 0 3.21ZM181.125 152.247a1.605 1.605 0 1 0 0-3.21 1.605 1.605 0 0 0 0 3.21ZM185.441 147.932a1.604 1.604 0 1 0 0-3.208 1.604 1.604 0 0 0 0 3.208ZM189.756 143.617a1.604 1.604 0 1 0 0-3.208 1.604 1.604 0 0 0 0 3.208ZM194.071 139.302a1.604 1.604 0 1 0 0-3.208 1.604 1.604 0 0 0 0 3.208ZM198.331 135.042a1.604 1.604 0 1 0 0-3.208 1.604 1.604 0 0 0 0 3.208ZM202.646 130.727a1.604 1.604 0 1 0 0-3.208 1.604 1.604 0 0 0 0 3.208ZM206.961 126.412a1.606 1.606 0 1 0-.001-3.211 1.606 1.606 0 0 0 .001 3.211ZM211.276 122.097a1.606 1.606 0 1 0-.001-3.211 1.606 1.606 0 0 0 .001 3.211ZM215.591 117.781a1.605 1.605 0 1 0 0-3.21 1.605 1.605 0 0 0 0 3.21ZM219.907 113.466a1.604 1.604 0 1 0 0-3.208 1.604 1.604 0 0 0 0 3.208ZM194.071 182.398a1.604 1.604 0 1 0 0-3.208 1.604 1.604 0 0 0 0 3.208ZM198.331 178.083a1.604 1.604 0 1 0 0-3.208 1.604 1.604 0 0 0 0 3.208ZM202.646 173.768a1.605 1.605 0 1 0-.001-3.21 1.605 1.605 0 0 0 .001 3.21ZM206.961 169.453a1.606 1.606 0 1 0-.001-3.211 1.606 1.606 0 0 0 .001 3.211ZM211.276 165.137a1.605 1.605 0 1 0 0-3.21 1.605 1.605 0 0 0 0 3.21ZM224.166 152.247a1.605 1.605 0 1 0 0-3.21 1.605 1.605 0 0 0 0 3.21ZM228.481 147.932a1.605 1.605 0 1 0 0-3.21 1.605 1.605 0 0 0 0 3.21ZM232.797 143.617a1.604 1.604 0 1 0 0-3.208 1.604 1.604 0 0 0 0 3.208ZM237.112 139.302a1.604 1.604 0 1 0 0-3.208 1.604 1.604 0 0 0 0 3.208ZM241.427 135.042a1.604 1.604 0 1 0 0-3.208 1.604 1.604 0 0 0 0 3.208ZM198.331 186.713a1.604 1.604 0 1 0 0-3.208 1.604 1.604 0 0 0 0 3.208ZM202.646 182.398a1.604 1.604 0 1 0 0-3.208 1.604 1.604 0 0 0 0 3.208ZM206.961 178.083a1.605 1.605 0 1 0 0-3.21 1.605 1.605 0 0 0 0 3.21ZM211.276 173.768a1.606 1.606 0 1 0-.001-3.211 1.606 1.606 0 0 0 .001 3.211ZM232.797 152.247a1.604 1.604 0 1 0 0-3.208 1.604 1.604 0 0 0 0 3.208ZM237.112 147.932a1.604 1.604 0 1 0 0-3.208 1.604 1.604 0 0 0 0 3.208ZM241.427 143.617a1.604 1.604 0 1 0 0-3.208 1.604 1.604 0 0 0 0 3.208ZM245.742 139.302a1.604 1.604 0 1 0 0-3.208 1.604 1.604 0 0 0 0 3.208ZM189.756 178.083a1.604 1.604 0 1 0 0-3.208 1.604 1.604 0 0 0 0 3.208ZM194.071 173.768a1.605 1.605 0 1 0-.001-3.21 1.605 1.605 0 0 0 .001 3.21ZM198.331 169.453a1.605 1.605 0 1 0-.001-3.21 1.605 1.605 0 0 0 .001 3.21ZM202.646 165.137a1.604 1.604 0 1 0 0-3.208 1.604 1.604 0 0 0 0 3.208ZM206.961 160.878a1.606 1.606 0 1 0-.001-3.211 1.606 1.606 0 0 0 .001 3.211ZM211.276 156.562a1.605 1.605 0 1 0 0-3.21 1.605 1.605 0 0 0 0 3.21ZM215.591 152.247a1.605 1.605 0 1 0 0-3.21 1.605 1.605 0 0 0 0 3.21ZM219.907 147.932a1.604 1.604 0 1 0 0-3.208 1.604 1.604 0 0 0 0 3.208ZM224.166 143.617a1.605 1.605 0 1 0 0-3.21 1.605 1.605 0 0 0 0 3.21ZM228.481 139.302a1.605 1.605 0 1 0 0-3.21 1.605 1.605 0 0 0 0 3.21ZM232.797 135.042a1.604 1.604 0 1 0 0-3.208 1.604 1.604 0 0 0 0 3.208ZM237.112 130.727a1.604 1.604 0 1 0 0-3.208 1.604 1.604 0 0 0 0 3.208ZM185.441 173.768a1.605 1.605 0 1 0-.001-3.21 1.605 1.605 0 0 0 .001 3.21ZM189.756 169.453a1.605 1.605 0 1 0-.001-3.21 1.605 1.605 0 0 0 .001 3.21ZM194.071 165.137a1.604 1.604 0 1 0 0-3.208 1.604 1.604 0 0 0 0 3.208ZM198.331 160.878a1.605 1.605 0 1 0-.001-3.21 1.605 1.605 0 0 0 .001 3.21ZM202.646 156.562a1.604 1.604 0 1 0 0-3.208 1.604 1.604 0 0 0 0 3.208ZM206.961 152.247a1.605 1.605 0 1 0 0-3.21 1.605 1.605 0 0 0 0 3.21ZM211.276 147.932a1.605 1.605 0 1 0 0-3.21 1.605 1.605 0 0 0 0 3.21ZM215.591 143.617a1.605 1.605 0 1 0 0-3.21 1.605 1.605 0 0 0 0 3.21ZM219.907 139.302a1.604 1.604 0 1 0 0-3.208 1.604 1.604 0 0 0 0 3.208ZM224.166 135.042a1.605 1.605 0 1 0 0-3.21 1.605 1.605 0 0 0 0 3.21ZM228.481 130.727a1.605 1.605 0 1 0 0-3.21 1.605 1.605 0 0 0 0 3.21ZM232.797 126.412a1.605 1.605 0 1 0-.001-3.21 1.605 1.605 0 0 0 .001 3.21ZM206.961 195.288a1.605 1.605 0 1 0 0-3.21 1.605 1.605 0 0 0 0 3.21ZM211.276 190.973a1.605 1.605 0 1 0 0-3.21 1.605 1.605 0 0 0 0 3.21ZM250.002 152.247a1.604 1.604 0 1 0 0-3.208 1.604 1.604 0 0 0 0 3.208ZM254.317 147.932a1.605 1.605 0 1 0 0-3.21 1.605 1.605 0 0 0 0 3.21ZM211.276 199.603a1.605 1.605 0 1 0 0-3.21 1.605 1.605 0 0 0 0 3.21ZM258.632 152.247a1.605 1.605 0 1 0 0-3.21 1.605 1.605 0 0 0 0 3.21ZM202.646 190.973a1.604 1.604 0 1 0 0-3.208 1.604 1.604 0 0 0 0 3.208ZM206.961 186.713a1.605 1.605 0 1 0 0-3.21 1.605 1.605 0 0 0 0 3.21ZM211.276 182.398a1.605 1.605 0 1 0 0-3.21 1.605 1.605 0 0 0 0 3.21ZM241.427 152.247a1.604 1.604 0 1 0 0-3.208 1.604 1.604 0 0 0 0 3.208ZM245.742 147.932a1.604 1.604 0 1 0 0-3.208 1.604 1.604 0 0 0 0 3.208ZM250.002 143.617a1.604 1.604 0 1 0 0-3.208 1.604 1.604 0 0 0 0 3.208ZM1.604 117.007a1.604 1.604 0 1 0 0-3.209 1.604 1.604 0 0 0 0 3.209ZM5.92 112.747a1.604 1.604 0 1 0 0-3.208 1.604 1.604 0 0 0 0 3.208ZM10.235 108.432a1.604 1.604 0 1 0 0-3.209 1.604 1.604 0 0 0 0 3.209ZM14.55 104.117a1.605 1.605 0 1 0-.002-3.21 1.605 1.605 0 0 0 .002 3.21ZM18.865 99.802a1.604 1.604 0 1 0 0-3.21 1.604 1.604 0 0 0 0 3.21ZM23.125 95.487a1.604 1.604 0 1 0 0-3.21 1.604 1.604 0 0 0 0 3.21ZM27.44 91.171a1.604 1.604 0 1 0 0-3.208 1.604 1.604 0 0 0 0 3.208ZM31.755 86.912a1.604 1.604 0 1 0 0-3.21 1.604 1.604 0 0 0 0 3.21ZM36.07 82.596a1.604 1.604 0 1 0 0-3.208 1.604 1.604 0 0 0 0 3.208ZM40.385 78.281a1.604 1.604 0 1 0 0-3.209 1.604 1.604 0 0 0 0 3.21ZM44.7 73.966a1.604 1.604 0 1 0 0-3.209 1.604 1.604 0 0 0 0 3.209ZM48.96 69.65a1.604 1.604 0 1 0 0-3.208 1.604 1.604 0 0 0 0 3.209ZM5.92 121.322a1.604 1.604 0 1 0 0-3.208 1.604 1.604 0 0 0 0 3.208ZM10.235 117.007a1.604 1.604 0 1 0 0-3.209 1.604 1.604 0 0 0 0 3.209ZM14.55 112.747a1.604 1.604 0 1 0 0-3.208 1.604 1.604 0 0 0 0 3.208ZM18.865 108.432a1.604 1.604 0 1 0 0-3.209 1.604 1.604 0 0 0 0 3.209ZM23.125 104.117a1.605 1.605 0 1 0-.001-3.21 1.605 1.605 0 0 0 0 3.21ZM27.44 99.802a1.604 1.604 0 1 0 0-3.21 1.604 1.604 0 0 0 0 3.21ZM31.755 95.487a1.604 1.604 0 1 0 0-3.21 1.604 1.604 0 0 0 0 3.21ZM36.07 91.171a1.604 1.604 0 1 0 0-3.208 1.604 1.604 0 0 0 0 3.208ZM40.385 86.912a1.604 1.604 0 1 0 0-3.21 1.604 1.604 0 0 0 0 3.21ZM44.7 82.596a1.604 1.604 0 1 0 0-3.208 1.604 1.604 0 0 0 0 3.208ZM48.96 78.281a1.604 1.604 0 1 0 0-3.208 1.604 1.604 0 0 0 0 3.208ZM53.276 73.966a1.604 1.604 0 1 0 0-3.209 1.604 1.604 0 0 0 0 3.209ZM1.604 108.432a1.604 1.604 0 1 0 0-3.209 1.604 1.604 0 0 0 0 3.209ZM5.92 104.117a1.605 1.605 0 1 0-.001-3.21 1.605 1.605 0 0 0 0 3.21ZM10.235 99.802a1.604 1.604 0 1 0 0-3.21 1.604 1.604 0 0 0 0 3.21ZM14.55 95.487a1.604 1.604 0 1 0 0-3.21 1.604 1.604 0 0 0 0 3.21ZM18.865 91.171a1.604 1.604 0 1 0 0-3.208 1.604 1.604 0 0 0 0 3.208ZM23.125 86.912a1.604 1.604 0 1 0 0-3.21 1.604 1.604 0 0 0 0 3.21ZM27.44 82.596a1.604 1.604 0 1 0 0-3.208 1.604 1.604 0 0 0 0 3.208ZM31.755 78.281a1.604 1.604 0 1 0 0-3.209 1.604 1.604 0 0 0 0 3.21ZM36.07 73.966a1.604 1.604 0 1 0 0-3.209 1.604 1.604 0 0 0 0 3.209ZM40.385 69.65a1.604 1.604 0 1 0 0-3.208 1.604 1.604 0 0 0 0 3.209ZM1.604 91.171a1.604 1.604 0 1 0 0-3.208 1.604 1.604 0 0 0 0 3.208ZM5.92 86.912a1.604 1.604 0 1 0 0-3.21 1.604 1.604 0 0 0 0 3.21ZM10.235 82.596a1.604 1.604 0 1 0 0-3.208 1.604 1.604 0 0 0 0 3.208ZM14.55 78.281a1.604 1.604 0 1 0 0-3.209 1.604 1.604 0 0 0 0 3.21ZM18.865 73.966a1.604 1.604 0 1 0 0-3.209 1.604 1.604 0 0 0 0 3.209ZM23.125 69.65a1.604 1.604 0 1 0 0-3.208 1.604 1.604 0 0 0 0 3.209ZM1.604 99.802a1.604 1.604 0 1 0 0-3.21 1.604 1.604 0 0 0 0 3.21ZM5.92 95.487a1.604 1.604 0 1 0 0-3.21 1.604 1.604 0 0 0 0 3.21ZM10.235 91.171a1.604 1.604 0 1 0 0-3.208 1.604 1.604 0 0 0 0 3.208ZM14.55 86.912a1.604 1.604 0 1 0 0-3.21 1.604 1.604 0 0 0 0 3.21ZM18.865 82.596a1.604 1.604 0 1 0 0-3.208 1.604 1.604 0 0 0 0 3.208ZM23.125 78.281a1.604 1.604 0 1 0 0-3.209 1.604 1.604 0 0 0 0 3.21ZM27.44 73.966a1.604 1.604 0 1 0 0-3.209 1.604 1.604 0 0 0 0 3.209ZM31.755 69.65a1.604 1.604 0 1 0 0-3.208 1.604 1.604 0 0 0 0 3.209ZM1.604 82.596a1.604 1.604 0 1 0 0-3.208 1.604 1.604 0 0 0 0 3.208ZM5.92 78.281a1.604 1.604 0 1 0 0-3.209 1.604 1.604 0 0 0 0 3.21ZM10.235 73.966a1.604 1.604 0 1 0 0-3.209 1.604 1.604 0 0 0 0 3.209ZM14.55 69.65a1.604 1.604 0 1 0 0-3.208 1.604 1.604 0 0 0 0 3.209ZM1.604 73.966a1.604 1.604 0 1 0 0-3.209 1.604 1.604 0 0 0 0 3.209ZM5.92 69.65a1.604 1.604 0 1 0 0-3.208 1.604 1.604 0 0 0 0 3.209ZM14.55 129.952a1.604 1.604 0 1 0 0-3.208 1.604 1.604 0 0 0 0 3.208ZM18.865 125.637a1.604 1.604 0 1 0 0-3.208 1.604 1.604 0 0 0 0 3.208ZM23.125 121.322a1.604 1.604 0 1 0 0-3.208 1.604 1.604 0 0 0 0 3.208ZM27.44 117.007a1.604 1.604 0 1 0 0-3.209 1.604 1.604 0 0 0 0 3.209ZM31.755 112.747a1.604 1.604 0 1 0 0-3.208 1.604 1.604 0 0 0 0 3.208ZM36.07 108.432a1.604 1.604 0 1 0 0-3.209 1.604 1.604 0 0 0 0 3.209ZM40.385 104.117a1.605 1.605 0 1 0-.001-3.21 1.605 1.605 0 0 0 .001 3.21ZM44.7 99.802a1.604 1.604 0 1 0 0-3.21 1.604 1.604 0 0 0 0 3.21ZM48.96 95.487a1.604 1.604 0 1 0 0-3.21 1.604 1.604 0 0 0 0 3.21ZM53.276 91.171a1.604 1.604 0 1 0 0-3.208 1.604 1.604 0 0 0 0 3.208ZM57.59 86.912a1.604 1.604 0 1 0 0-3.21 1.604 1.604 0 0 0 0 3.21ZM61.906 82.596a1.604 1.604 0 1 0 0-3.208 1.604 1.604 0 0 0 0 3.208ZM18.865 134.267a1.604 1.604 0 1 0 0-3.208 1.604 1.604 0 0 0 0 3.208ZM23.125 129.952a1.604 1.604 0 1 0 0-3.208 1.604 1.604 0 0 0 0 3.208ZM27.44 125.637a1.604 1.604 0 1 0 0-3.208 1.604 1.604 0 0 0 0 3.208ZM31.755 121.322a1.604 1.604 0 1 0 0-3.208 1.604 1.604 0 0 0 0 3.208ZM36.07 117.007a1.604 1.604 0 1 0 0-3.209 1.604 1.604 0 0 0 0 3.209ZM40.385 112.747a1.604 1.604 0 1 0 0-3.208 1.604 1.604 0 0 0 0 3.208ZM44.7 108.432a1.604 1.604 0 1 0 0-3.209 1.604 1.604 0 0 0 0 3.209ZM48.96 104.117a1.605 1.605 0 1 0 0-3.21 1.605 1.605 0 0 0 0 3.21ZM53.276 99.802a1.604 1.604 0 1 0 0-3.21 1.604 1.604 0 0 0 0 3.21ZM57.59 95.487a1.604 1.604 0 1 0 0-3.21 1.604 1.604 0 0 0 0 3.21ZM61.906 91.171a1.604 1.604 0 1 0 0-3.208 1.604 1.604 0 0 0 0 3.208ZM66.221 86.912a1.604 1.604 0 1 0 0-3.21 1.604 1.604 0 0 0 0 3.21ZM10.235 125.637a1.604 1.604 0 1 0 0-3.208 1.604 1.604 0 0 0 0 3.208ZM14.55 121.322a1.604 1.604 0 1 0 0-3.208 1.604 1.604 0 0 0 0 3.208ZM18.865 117.007a1.604 1.604 0 1 0 0-3.209 1.604 1.604 0 0 0 0 3.209ZM23.125 112.747a1.604 1.604 0 1 0 0-3.208 1.604 1.604 0 0 0 0 3.208ZM27.44 108.432a1.604 1.604 0 1 0 0-3.209 1.604 1.604 0 0 0 0 3.209ZM31.755 104.117a1.605 1.605 0 1 0 0-3.21 1.605 1.605 0 0 0 0 3.21ZM36.07 99.802a1.604 1.604 0 1 0 0-3.21 1.604 1.604 0 0 0 0 3.21ZM40.385 95.487a1.604 1.604 0 1 0 0-3.21 1.604 1.604 0 0 0 0 3.21ZM44.7 91.171a1.604 1.604 0 1 0 0-3.208 1.604 1.604 0 0 0 0 3.208ZM48.96 86.912a1.604 1.604 0 1 0 0-3.21 1.604 1.604 0 0 0 0 3.21ZM53.276 82.596a1.604 1.604 0 1 0 0-3.208 1.604 1.604 0 0 0 0 3.208ZM57.59 78.281a1.604 1.604 0 1 0 0-3.209 1.604 1.604 0 0 0 0 3.21ZM31.755 147.158a1.605 1.605 0 1 0 0-3.21 1.605 1.605 0 0 0 0 3.21ZM36.07 142.898a1.605 1.605 0 1 0-.001-3.21 1.605 1.605 0 0 0 .001 3.21ZM40.385 138.583a1.605 1.605 0 1 0-.001-3.21 1.605 1.605 0 0 0 .001 3.21ZM44.7 134.267a1.604 1.604 0 1 0 .001-3.208 1.604 1.604 0 0 0 0 3.208ZM48.96 129.952a1.604 1.604 0 1 0 0-3.208 1.604 1.604 0 0 0 0 3.208ZM61.906 117.007a1.604 1.604 0 1 0 0-3.209 1.604 1.604 0 0 0 0 3.209ZM66.221 112.747a1.604 1.604 0 1 0 0-3.208 1.604 1.604 0 0 0 0 3.208ZM70.536 108.432a1.604 1.604 0 1 0 0-3.209 1.604 1.604 0 0 0 0 3.209ZM74.796 104.117a1.605 1.605 0 1 0-.001-3.21 1.605 1.605 0 0 0 0 3.21ZM79.111 99.802a1.604 1.604 0 1 0 0-3.21 1.604 1.604 0 0 0 0 3.21ZM36.07 151.473a1.605 1.605 0 1 0-.001-3.21 1.605 1.605 0 0 0 .001 3.21ZM40.385 147.158a1.605 1.605 0 1 0-.001-3.21 1.605 1.605 0 0 0 .001 3.21ZM44.7 142.898a1.605 1.605 0 1 0 0-3.21 1.605 1.605 0 0 0 0 3.21ZM48.96 138.583a1.605 1.605 0 1 0 0-3.21 1.605 1.605 0 0 0 0 3.21ZM70.536 117.007a1.604 1.604 0 1 0 0-3.209 1.604 1.604 0 0 0 0 3.209ZM74.796 112.747a1.604 1.604 0 1 0 0-3.208 1.604 1.604 0 0 0 0 3.208ZM79.111 108.432a1.604 1.604 0 1 0 0-3.209 1.604 1.604 0 0 0 0 3.209ZM83.426 104.117a1.605 1.605 0 1 0-.001-3.21 1.605 1.605 0 0 0 .001 3.21ZM27.44 142.898a1.605 1.605 0 1 0-.001-3.21 1.605 1.605 0 0 0 0 3.21ZM31.755 138.583a1.605 1.605 0 1 0 0-3.21 1.605 1.605 0 0 0 0 3.21ZM36.07 134.267a1.604 1.604 0 1 0 0-3.208 1.604 1.604 0 0 0 0 3.208ZM40.385 129.952a1.604 1.604 0 1 0 0-3.208 1.604 1.604 0 0 0 0 3.208ZM44.7 125.637a1.604 1.604 0 1 0 .001-3.208 1.604 1.604 0 0 0 0 3.208ZM48.96 121.322a1.604 1.604 0 1 0 0-3.208 1.604 1.604 0 0 0 0 3.208ZM53.276 117.007a1.604 1.604 0 1 0 0-3.209 1.604 1.604 0 0 0 0 3.209ZM57.59 112.747a1.604 1.604 0 1 0 .001-3.208 1.604 1.604 0 0 0 0 3.208ZM61.906 108.432a1.604 1.604 0 1 0 0-3.209 1.604 1.604 0 0 0 0 3.209ZM66.221 104.117a1.605 1.605 0 1 0-.001-3.21 1.605 1.605 0 0 0 .001 3.21ZM70.536 99.802a1.604 1.604 0 1 0 0-3.21 1.604 1.604 0 0 0 0 3.21ZM74.796 95.487a1.604 1.604 0 1 0 0-3.21 1.604 1.604 0 0 0 0 3.21ZM23.125 138.583a1.605 1.605 0 1 0-.001-3.21 1.605 1.605 0 0 0 0 3.21ZM27.44 134.267a1.604 1.604 0 1 0 0-3.208 1.604 1.604 0 0 0 0 3.208ZM31.755 129.952a1.604 1.604 0 1 0 0-3.208 1.604 1.604 0 0 0 0 3.208ZM36.07 125.637a1.604 1.604 0 1 0 0-3.208 1.604 1.604 0 0 0 0 3.208ZM40.385 121.322a1.604 1.604 0 1 0 0-3.208 1.604 1.604 0 0 0 0 3.208ZM44.7 117.007a1.604 1.604 0 1 0 0-3.209 1.604 1.604 0 0 0 0 3.209ZM48.96 112.747a1.604 1.604 0 1 0 0-3.208 1.604 1.604 0 0 0 0 3.208ZM53.276 108.432a1.604 1.604 0 1 0 0-3.209 1.604 1.604 0 0 0 0 3.209ZM57.59 104.117a1.605 1.605 0 1 0 0-3.21 1.605 1.605 0 0 0 0 3.21ZM61.906 99.802a1.604 1.604 0 1 0 0-3.21 1.604 1.604 0 0 0 0 3.21ZM66.221 95.487a1.604 1.604 0 1 0 0-3.21 1.604 1.604 0 0 0 0 3.21ZM70.536 91.171a1.604 1.604 0 1 0 0-3.208 1.604 1.604 0 0 0 0 3.208ZM44.7 160.103a1.604 1.604 0 1 0 .001-3.208 1.604 1.604 0 0 0 0 3.208ZM48.96 155.788a1.604 1.604 0 1 0 0-3.208 1.604 1.604 0 0 0 0 3.208ZM87.742 117.007a1.604 1.604 0 1 0 0-3.209 1.604 1.604 0 0 0 0 3.209ZM92.056 112.747a1.604 1.604 0 1 0 .001-3.208 1.604 1.604 0 0 0 0 3.208ZM48.96 164.418a1.604 1.604 0 1 0 0-3.208 1.604 1.604 0 0 0 0 3.208ZM96.371 117.007a1.604 1.604 0 1 0 0-3.209 1.604 1.604 0 0 0 0 3.209ZM40.385 155.788a1.604 1.604 0 1 0 0-3.208 1.604 1.604 0 0 0 0 3.208ZM44.7 151.473a1.605 1.605 0 1 0 0-3.21 1.605 1.605 0 0 0 0 3.21ZM48.96 147.158a1.605 1.605 0 1 0 0-3.21 1.605 1.605 0 0 0 0 3.21ZM79.111 117.007a1.604 1.604 0 1 0 0-3.209 1.604 1.604 0 0 0 0 3.209ZM83.426 112.747a1.604 1.604 0 1 0 0-3.208 1.604 1.604 0 0 0 0 3.208ZM87.742 108.432a1.604 1.604 0 1 0 0-3.209 1.604 1.604 0 0 0 0 3.209ZM10.29 279.544a1.604 1.604 0 1 0 0-3.208 1.604 1.604 0 0 0 0 3.208ZM14.605 275.229a1.604 1.604 0 1 0 0-3.208 1.604 1.604 0 0 0 0 3.208ZM18.865 270.914a1.605 1.605 0 1 0-.001-3.21 1.605 1.605 0 0 0 .001 3.21ZM23.18 266.599a1.605 1.605 0 1 0-.001-3.21 1.605 1.605 0 0 0 .001 3.21ZM27.495 262.283a1.604 1.604 0 1 0 0-3.208 1.604 1.604 0 0 0 0 3.208ZM31.81 258.024a1.605 1.605 0 1 0 0-3.21 1.605 1.605 0 0 0 0 3.21ZM36.125 253.708a1.604 1.604 0 1 0 0-3.208 1.604 1.604 0 0 0 0 3.208ZM40.44 249.393a1.604 1.604 0 1 0 .001-3.208 1.604 1.604 0 0 0 0 3.208ZM10.29 288.119a1.604 1.604 0 1 0 0-3.208 1.604 1.604 0 0 0 0 3.208ZM14.605 283.859a1.604 1.604 0 1 0 0-3.208 1.604 1.604 0 0 0 0 3.208ZM18.865 279.544a1.604 1.604 0 1 0 0-3.208 1.604 1.604 0 0 0 0 3.208ZM23.18 275.229a1.604 1.604 0 1 0 0-3.208 1.604 1.604 0 0 0 0 3.208ZM27.495 270.914a1.605 1.605 0 1 0-.001-3.21 1.605 1.605 0 0 0 .001 3.21ZM31.81 266.599a1.605 1.605 0 1 0 0-3.21 1.605 1.605 0 0 0 0 3.21ZM36.125 262.283a1.604 1.604 0 1 0 0-3.208 1.604 1.604 0 0 0 0 3.208ZM40.44 258.024a1.605 1.605 0 1 0 0-3.21 1.605 1.605 0 0 0 0 3.21ZM44.7 253.708a1.604 1.604 0 1 0 .001-3.208 1.604 1.604 0 0 0 0 3.208ZM49.016 249.393a1.604 1.604 0 1 0 0-3.208 1.604 1.604 0 0 0 0 3.208ZM10.29 270.914a1.605 1.605 0 1 0-.001-3.21 1.605 1.605 0 0 0 0 3.21ZM14.605 266.599a1.605 1.605 0 1 0 0-3.21 1.605 1.605 0 0 0 0 3.21ZM18.865 262.283a1.604 1.604 0 1 0 0-3.208 1.604 1.604 0 0 0 0 3.208ZM23.18 258.024a1.605 1.605 0 1 0-.001-3.21 1.605 1.605 0 0 0 .001 3.21ZM27.495 253.708a1.604 1.604 0 1 0 0-3.208 1.604 1.604 0 0 0 0 3.208ZM31.81 249.393a1.604 1.604 0 1 0 .001-3.208 1.604 1.604 0 0 0 0 3.208ZM10.29 253.708a1.604 1.604 0 1 0 0-3.208 1.604 1.604 0 0 0 0 3.208ZM14.605 249.393a1.604 1.604 0 1 0 0-3.208 1.604 1.604 0 0 0 0 3.208ZM10.29 262.283a1.604 1.604 0 1 0 0-3.208 1.604 1.604 0 0 0 0 3.208ZM14.605 258.024a1.605 1.605 0 1 0 0-3.21 1.605 1.605 0 0 0 0 3.21ZM18.865 253.708a1.604 1.604 0 1 0 0-3.208 1.604 1.604 0 0 0 0 3.208ZM23.18 249.393a1.604 1.604 0 1 0 0-3.208 1.604 1.604 0 0 0 0 3.208ZM18.865 296.749a1.604 1.604 0 1 0 0-3.208 1.604 1.604 0 0 0 0 3.208ZM23.18 292.434a1.604 1.604 0 1 0 0-3.208 1.604 1.604 0 0 0 0 3.208ZM27.495 288.119a1.604 1.604 0 1 0 0-3.208 1.604 1.604 0 0 0 0 3.208ZM31.81 283.859a1.604 1.604 0 1 0 .001-3.208 1.604 1.604 0 0 0 0 3.208ZM36.125 279.544a1.604 1.604 0 1 0 0-3.208 1.604 1.604 0 0 0 0 3.208ZM40.44 275.229a1.604 1.604 0 1 0 .001-3.208 1.604 1.604 0 0 0 0 3.208ZM44.7 270.914a1.605 1.605 0 1 0 0-3.21 1.605 1.605 0 0 0 0 3.21ZM49.016 266.599a1.605 1.605 0 1 0-.002-3.21 1.605 1.605 0 0 0 .002 3.21ZM53.33 262.283a1.604 1.604 0 1 0 .001-3.208 1.604 1.604 0 0 0 0 3.208ZM57.646 258.024a1.605 1.605 0 1 0-.001-3.21 1.605 1.605 0 0 0 0 3.21ZM23.18 301.064a1.604 1.604 0 1 0 0-3.208 1.604 1.604 0 0 0 0 3.208ZM27.495 296.749a1.604 1.604 0 1 0 0-3.208 1.604 1.604 0 0 0 0 3.208ZM31.81 292.434a1.604 1.604 0 1 0 .001-3.208 1.604 1.604 0 0 0 0 3.208ZM36.125 288.119a1.604 1.604 0 1 0 0-3.208 1.604 1.604 0 0 0 0 3.208ZM40.44 283.859a1.604 1.604 0 1 0 .001-3.208 1.604 1.604 0 0 0 0 3.208ZM44.7 279.544a1.604 1.604 0 1 0 .001-3.208 1.604 1.604 0 0 0 0 3.208ZM49.016 275.229a1.604 1.604 0 1 0 0-3.208 1.604 1.604 0 0 0 0 3.208ZM53.33 270.914a1.605 1.605 0 1 0 0-3.21 1.605 1.605 0 0 0 0 3.21ZM57.646 266.599a1.605 1.605 0 1 0-.001-3.21 1.605 1.605 0 0 0 0 3.21ZM61.961 262.283a1.604 1.604 0 1 0 0-3.208 1.604 1.604 0 0 0 0 3.208ZM14.605 292.434a1.604 1.604 0 1 0 0-3.208 1.604 1.604 0 0 0 0 3.208ZM18.865 288.119a1.604 1.604 0 1 0 0-3.208 1.604 1.604 0 0 0 0 3.208ZM23.18 283.859a1.604 1.604 0 1 0 0-3.208 1.604 1.604 0 0 0 0 3.208ZM27.495 279.544a1.604 1.604 0 1 0 0-3.208 1.604 1.604 0 0 0 0 3.208ZM31.81 275.229a1.604 1.604 0 1 0 .001-3.208 1.604 1.604 0 0 0 0 3.208ZM36.125 270.914a1.605 1.605 0 1 0 0-3.21 1.605 1.605 0 0 0 0 3.21ZM40.44 266.599a1.605 1.605 0 1 0 0-3.21 1.605 1.605 0 0 0 0 3.21ZM44.7 262.283a1.604 1.604 0 1 0 .001-3.208 1.604 1.604 0 0 0 0 3.208ZM49.016 258.024a1.605 1.605 0 1 0-.002-3.21 1.605 1.605 0 0 0 .002 3.21ZM53.33 253.708a1.604 1.604 0 1 0 .001-3.208 1.604 1.604 0 0 0 0 3.208ZM36.125 313.955a1.605 1.605 0 1 0 0-3.21 1.605 1.605 0 0 0 0 3.21ZM40.44 309.695a1.605 1.605 0 1 0 0-3.21 1.605 1.605 0 0 0 0 3.21ZM44.7 305.38a1.605 1.605 0 1 0 0-3.21 1.605 1.605 0 0 0 0 3.21ZM49.016 301.064a1.604 1.604 0 1 0 0-3.208 1.604 1.604 0 0 0 0 3.208ZM61.961 288.119a1.604 1.604 0 1 0 0-3.208 1.604 1.604 0 0 0 0 3.208ZM66.276 283.859a1.604 1.604 0 1 0 0-3.208 1.604 1.604 0 0 0 0 3.208ZM70.536 279.544a1.604 1.604 0 1 0 0-3.208 1.604 1.604 0 0 0 0 3.208ZM74.851 275.229a1.604 1.604 0 1 0 .001-3.208 1.604 1.604 0 0 0 0 3.208ZM40.44 318.27a1.605 1.605 0 1 0 0-3.21 1.605 1.605 0 0 0 0 3.21ZM44.7 313.955a1.605 1.605 0 1 0 0-3.21 1.605 1.605 0 0 0 0 3.21ZM49.016 309.695a1.605 1.605 0 1 0-.002-3.21 1.605 1.605 0 0 0 .002 3.21ZM70.536 288.119a1.604 1.604 0 1 0 0-3.208 1.604 1.604 0 0 0 0 3.208ZM74.851 283.859a1.604 1.604 0 1 0 .001-3.208 1.604 1.604 0 0 0 0 3.208ZM79.166 279.544a1.604 1.604 0 1 0 0-3.208 1.604 1.604 0 0 0 0 3.208ZM31.81 309.695a1.605 1.605 0 1 0 0-3.21 1.605 1.605 0 0 0 0 3.21ZM36.125 305.38a1.605 1.605 0 1 0 0-3.21 1.605 1.605 0 0 0 0 3.21ZM40.44 301.064a1.604 1.604 0 1 0 .001-3.208 1.604 1.604 0 0 0 0 3.208ZM44.7 296.749a1.604 1.604 0 1 0 .001-3.208 1.604 1.604 0 0 0 0 3.208ZM49.016 292.434a1.604 1.604 0 1 0 0-3.208 1.604 1.604 0 0 0 0 3.208ZM53.33 288.119a1.604 1.604 0 1 0 .001-3.208 1.604 1.604 0 0 0 0 3.208ZM57.646 283.859a1.604 1.604 0 1 0 0-3.208 1.604 1.604 0 0 0 0 3.208ZM61.961 279.544a1.604 1.604 0 1 0 0-3.208 1.604 1.604 0 0 0 0 3.208ZM66.276 275.229a1.604 1.604 0 1 0 0-3.208 1.604 1.604 0 0 0 0 3.208ZM70.536 270.914a1.605 1.605 0 1 0-.001-3.21 1.605 1.605 0 0 0 .001 3.21ZM27.495 305.38a1.605 1.605 0 1 0-.001-3.21 1.605 1.605 0 0 0 .001 3.21ZM31.81 301.064a1.604 1.604 0 1 0 .001-3.208 1.604 1.604 0 0 0 0 3.208ZM36.125 296.749a1.604 1.604 0 1 0 0-3.208 1.604 1.604 0 0 0 0 3.208ZM40.44 292.434a1.604 1.604 0 1 0 .001-3.208 1.604 1.604 0 0 0 0 3.208ZM44.7 288.119a1.604 1.604 0 1 0 .001-3.208 1.604 1.604 0 0 0 0 3.208ZM49.016 283.859a1.604 1.604 0 1 0 0-3.208 1.604 1.604 0 0 0 0 3.208ZM53.33 279.544a1.604 1.604 0 1 0 .001-3.208 1.604 1.604 0 0 0 0 3.208ZM57.646 275.229a1.604 1.604 0 1 0 0-3.208 1.604 1.604 0 0 0 0 3.208ZM61.961 270.914a1.605 1.605 0 1 0-.001-3.21 1.605 1.605 0 0 0 .001 3.21ZM66.276 266.599a1.605 1.605 0 1 0 0-3.21 1.605 1.605 0 0 0 0 3.21ZM49.016 326.9a1.604 1.604 0 1 0 0-3.208 1.604 1.604 0 0 0 0 3.208ZM87.797 288.119a1.604 1.604 0 1 0 0-3.208 1.604 1.604 0 0 0 0 3.208ZM44.7 322.585a1.604 1.604 0 1 0 0-3.209 1.604 1.604 0 0 0 0 3.209ZM49.016 318.27a1.605 1.605 0 1 0-.002-3.21 1.605 1.605 0 0 0 .002 3.21ZM79.166 288.119a1.604 1.604 0 1 0 0-3.208 1.604 1.604 0 0 0 0 3.208ZM83.481 283.859a1.604 1.604 0 1 0 0-3.208 1.604 1.604 0 0 0 0 3.208ZM85.418 197.833a1.604 1.604 0 1 0 0-3.209 1.604 1.604 0 0 0 0 3.209ZM89.733 193.518a1.605 1.605 0 1 0-.001-3.21 1.605 1.605 0 0 0 0 3.21ZM85.418 206.408a1.604 1.604 0 1 0 0-3.209 1.604 1.604 0 0 0 0 3.209ZM89.733 202.148a1.604 1.604 0 1 0 0-3.208 1.604 1.604 0 0 0 0 3.208ZM94.048 197.833a1.604 1.604 0 1 0 0-3.208 1.604 1.604 0 0 0 0 3.208ZM98.308 193.518a1.605 1.605 0 1 0-.001-3.21 1.605 1.605 0 0 0 .001 3.21ZM85.418 223.668a1.604 1.604 0 1 0 0-3.208 1.604 1.604 0 0 0 0 3.208ZM89.733 219.353a1.604 1.604 0 1 0 0-3.208 1.604 1.604 0 0 0 0 3.208ZM94.048 215.038a1.604 1.604 0 1 0 0-3.208 1.604 1.604 0 0 0 0 3.208ZM98.308 210.723a1.604 1.604 0 1 0 0-3.208 1.604 1.604 0 0 0 0 3.208ZM102.623 206.408a1.604 1.604 0 1 0 0-3.208 1.604 1.604 0 0 0 0 3.208ZM106.938 202.148a1.605 1.605 0 1 0 0-3.21 1.605 1.605 0 0 0 0 3.21ZM111.253 197.833a1.605 1.605 0 1 0 0-3.21 1.605 1.605 0 0 0 0 3.21ZM115.569 193.518a1.605 1.605 0 1 0-.001-3.21 1.605 1.605 0 0 0 .001 3.21ZM89.733 227.984a1.605 1.605 0 1 0-.001-3.21 1.605 1.605 0 0 0 .001 3.21ZM94.048 223.668a1.604 1.604 0 1 0 0-3.208 1.604 1.604 0 0 0 0 3.208ZM98.308 219.353a1.604 1.604 0 1 0 0-3.208 1.604 1.604 0 0 0 0 3.208ZM102.623 215.038a1.604 1.604 0 1 0 0-3.208 1.604 1.604 0 0 0 0 3.208ZM106.938 210.723a1.605 1.605 0 1 0 0-3.21 1.605 1.605 0 0 0 0 3.21ZM111.253 206.408a1.605 1.605 0 1 0 0-3.21 1.605 1.605 0 0 0 0 3.21ZM115.569 202.148a1.604 1.604 0 1 0 0-3.208 1.604 1.604 0 0 0 0 3.208ZM119.884 197.833a1.604 1.604 0 1 0 0-3.208 1.604 1.604 0 0 0 0 3.208ZM85.418 215.038a1.604 1.604 0 1 0 0-3.208 1.604 1.604 0 0 0 0 3.208ZM89.733 210.723a1.604 1.604 0 1 0 0-3.208 1.604 1.604 0 0 0 0 3.208ZM94.048 206.408a1.604 1.604 0 1 0 0-3.208 1.604 1.604 0 0 0 0 3.208ZM98.308 202.148a1.604 1.604 0 1 0 0-3.208 1.604 1.604 0 0 0 0 3.208ZM102.623 197.833a1.604 1.604 0 1 0 0-3.208 1.604 1.604 0 0 0 0 3.208ZM106.938 193.518a1.606 1.606 0 1 0-.001-3.211 1.606 1.606 0 0 0 .001 3.211ZM102.623 240.874a1.605 1.605 0 1 0-.001-3.21 1.605 1.605 0 0 0 .001 3.21ZM106.938 236.559a1.606 1.606 0 1 0-.001-3.211 1.606 1.606 0 0 0 .001 3.211ZM111.253 232.243a1.605 1.605 0 1 0 0-3.21 1.605 1.605 0 0 0 0 3.21ZM115.569 227.984a1.605 1.605 0 1 0-.001-3.21 1.605 1.605 0 0 0 .001 3.21ZM119.884 223.668a1.604 1.604 0 1 0 0-3.208 1.604 1.604 0 0 0 0 3.208ZM124.143 219.353a1.605 1.605 0 1 0 0-3.21 1.605 1.605 0 0 0 0 3.21ZM128.459 215.038a1.604 1.604 0 1 0 0-3.208 1.604 1.604 0 0 0 0 3.208ZM132.774 210.723a1.604 1.604 0 1 0 0-3.208 1.604 1.604 0 0 0 0 3.208ZM106.938 245.189a1.605 1.605 0 1 0 0-3.21 1.605 1.605 0 0 0 0 3.21ZM111.253 240.874a1.606 1.606 0 1 0-.001-3.211 1.606 1.606 0 0 0 .001 3.211ZM115.569 236.559a1.605 1.605 0 1 0-.001-3.21 1.605 1.605 0 0 0 .001 3.21ZM128.459 223.668a1.604 1.604 0 1 0 0-3.208 1.604 1.604 0 0 0 0 3.208ZM132.774 219.353a1.604 1.604 0 1 0 0-3.208 1.604 1.604 0 0 0 0 3.208ZM137.089 215.038a1.604 1.604 0 1 0 0-3.208 1.604 1.604 0 0 0 0 3.208ZM98.308 236.559a1.605 1.605 0 1 0-.001-3.21 1.605 1.605 0 0 0 .001 3.21ZM102.623 232.243a1.604 1.604 0 1 0 0-3.208 1.604 1.604 0 0 0 0 3.208ZM106.938 227.984a1.606 1.606 0 1 0-.001-3.211 1.606 1.606 0 0 0 .001 3.211ZM111.253 223.668a1.605 1.605 0 1 0 0-3.21 1.605 1.605 0 0 0 0 3.21ZM115.569 219.353a1.604 1.604 0 1 0 0-3.208 1.604 1.604 0 0 0 0 3.208ZM119.884 215.038a1.604 1.604 0 1 0 0-3.208 1.604 1.604 0 0 0 0 3.208ZM124.143 210.723a1.605 1.605 0 1 0 0-3.21 1.605 1.605 0 0 0 0 3.21ZM128.459 206.408a1.604 1.604 0 1 0 0-3.208 1.604 1.604 0 0 0 0 3.208ZM94.048 232.243a1.604 1.604 0 1 0 0-3.208 1.604 1.604 0 0 0 0 3.208ZM98.308 227.984a1.605 1.605 0 1 0-.001-3.21 1.605 1.605 0 0 0 .001 3.21ZM102.623 223.668a1.604 1.604 0 1 0 0-3.208 1.604 1.604 0 0 0 0 3.208ZM106.938 219.353a1.605 1.605 0 1 0 0-3.21 1.605 1.605 0 0 0 0 3.21ZM111.253 215.038a1.605 1.605 0 1 0 0-3.21 1.605 1.605 0 0 0 0 3.21ZM115.569 210.723a1.604 1.604 0 1 0 0-3.208 1.604 1.604 0 0 0 0 3.208ZM119.884 206.408a1.604 1.604 0 1 0 0-3.208 1.604 1.604 0 0 0 0 3.208ZM124.143 202.148a1.605 1.605 0 1 0 0-3.21 1.605 1.605 0 0 0 0 3.21ZM115.569 253.819a1.604 1.604 0 1 0 0-3.208 1.604 1.604 0 0 0 0 3.208ZM145.719 223.668a1.604 1.604 0 1 0 0-3.208 1.604 1.604 0 0 0 0 3.208ZM111.253 249.504a1.605 1.605 0 1 0 0-3.21 1.605 1.605 0 0 0 0 3.21ZM115.569 245.189a1.604 1.604 0 1 0 0-3.208 1.604 1.604 0 0 0 0 3.208ZM137.089 223.668a1.605 1.605 0 1 0 0-3.21 1.605 1.605 0 0 0 0 3.21ZM141.404 219.353a1.604 1.604 0 1 0 0-3.208 1.604 1.604 0 0 0 0 3.208Z"
    fill="#fff" fill-opacity=".2"/>
  <path
    d="M170.559 72.749a1.604 1.604 0 1 0 0-3.208 1.604 1.604 0 0 0 0 3.208ZM170.559 81.38a1.604 1.604 0 1 0 0-3.209 1.604 1.604 0 0 0 0 3.208ZM174.874 77.064a1.604 1.604 0 1 0 0-3.208 1.604 1.604 0 0 0 0 3.208ZM179.189 72.749a1.605 1.605 0 1 0 0-3.21 1.605 1.605 0 0 0 0 3.21ZM179.189 98.585a1.605 1.605 0 1 0 0-3.21 1.605 1.605 0 0 0 0 3.21ZM183.449 94.325a1.604 1.604 0 1 0 0-3.209 1.604 1.604 0 0 0 0 3.209ZM187.764 90.01a1.604 1.604 0 1 0 0-3.209 1.604 1.604 0 0 0 0 3.209ZM192.079 85.694a1.605 1.605 0 1 0 0-3.21 1.605 1.605 0 0 0 0 3.21ZM196.394 81.38a1.605 1.605 0 1 0 0-3.21 1.605 1.605 0 0 0 0 3.21ZM183.449 102.9a1.605 1.605 0 1 0-.001-3.21 1.605 1.605 0 0 0 .001 3.21ZM187.764 98.585a1.604 1.604 0 1 0 0-3.209 1.604 1.604 0 0 0 0 3.209ZM196.394 90.01a1.605 1.605 0 1 0 0-3.21 1.605 1.605 0 0 0 0 3.21ZM200.71 85.694a1.604 1.604 0 1 0 0-3.208 1.604 1.604 0 0 0 0 3.208ZM174.874 94.325a1.604 1.604 0 1 0 0-3.209 1.604 1.604 0 0 0 0 3.209ZM179.189 90.01a1.605 1.605 0 1 0 0-3.21 1.605 1.605 0 0 0 0 3.21ZM183.449 85.694a1.604 1.604 0 1 0 0-3.208 1.604 1.604 0 0 0 0 3.208ZM187.764 81.38a1.604 1.604 0 1 0 0-3.209 1.604 1.604 0 0 0 0 3.208ZM192.079 77.064a1.605 1.605 0 1 0 0-3.21 1.605 1.605 0 0 0 0 3.21ZM170.559 90.01a1.604 1.604 0 1 0 0-3.209 1.604 1.604 0 0 0 0 3.209ZM174.874 85.694a1.604 1.604 0 1 0 0-3.208 1.604 1.604 0 0 0 0 3.208ZM179.189 81.38a1.605 1.605 0 1 0 0-3.21 1.605 1.605 0 0 0 0 3.21ZM183.449 77.064a1.604 1.604 0 1 0 0-3.208 1.604 1.604 0 0 0 0 3.208ZM187.764 72.749a1.604 1.604 0 1 0 0-3.208 1.604 1.604 0 0 0 0 3.208ZM187.764 107.215a1.605 1.605 0 1 0-.001-3.21 1.605 1.605 0 0 0 .001 3.21ZM205.025 90.01a1.604 1.604 0 1 0 0-3.209 1.604 1.604 0 0 0 0 3.209ZM10.456 227.818a1.605 1.605 0 1 0-.001-3.21 1.605 1.605 0 0 0 0 3.21ZM10.456 236.393a1.605 1.605 0 1 0-.001-3.21 1.605 1.605 0 0 0 0 3.21ZM14.77 232.077a1.604 1.604 0 1 0 .001-3.208 1.604 1.604 0 0 0 0 3.208ZM19.086 227.818a1.605 1.605 0 1 0-.001-3.21 1.605 1.605 0 0 0 .001 3.21ZM19.086 253.653a1.604 1.604 0 1 0 0-3.208 1.604 1.604 0 0 0 0 3.208ZM23.401 249.338a1.604 1.604 0 1 0 0-3.208 1.604 1.604 0 0 0 0 3.208ZM27.717 245.023a1.604 1.604 0 1 0 0-3.208 1.604 1.604 0 0 0 0 3.208ZM31.976 240.708a1.605 1.605 0 1 0 0-3.21 1.605 1.605 0 0 0 0 3.21ZM36.291 236.393a1.605 1.605 0 1 0 0-3.21 1.605 1.605 0 0 0 0 3.21ZM23.401 257.913a1.604 1.604 0 1 0 0-3.208 1.604 1.604 0 0 0 0 3.208ZM27.717 253.653a1.604 1.604 0 1 0 0-3.208 1.604 1.604 0 0 0 0 3.208ZM36.291 245.023a1.604 1.604 0 1 0 0-3.208 1.604 1.604 0 0 0 0 3.208ZM40.607 240.708a1.605 1.605 0 1 0-.001-3.21 1.605 1.605 0 0 0 0 3.21ZM14.77 249.338a1.604 1.604 0 1 0 .001-3.208 1.604 1.604 0 0 0 0 3.208ZM19.086 245.023a1.604 1.604 0 1 0 0-3.208 1.604 1.604 0 0 0 0 3.208ZM23.401 240.708a1.605 1.605 0 1 0 0-3.21 1.605 1.605 0 0 0 0 3.21ZM27.717 236.393a1.605 1.605 0 1 0-.002-3.21 1.605 1.605 0 0 0 .002 3.21ZM31.976 232.077a1.604 1.604 0 1 0 .001-3.208 1.604 1.604 0 0 0 0 3.208ZM10.456 245.023a1.604 1.604 0 1 0 0-3.208 1.604 1.604 0 0 0 0 3.208ZM14.77 240.708a1.605 1.605 0 1 0 0-3.21 1.605 1.605 0 0 0 0 3.21ZM19.086 236.393a1.605 1.605 0 1 0-.001-3.21 1.605 1.605 0 0 0 .001 3.21ZM23.401 232.077a1.604 1.604 0 1 0 0-3.208 1.604 1.604 0 0 0 0 3.208ZM27.717 227.818a1.605 1.605 0 1 0-.002-3.21 1.605 1.605 0 0 0 .002 3.21ZM27.717 262.228a1.604 1.604 0 1 0 0-3.208 1.604 1.604 0 0 0 0 3.208ZM44.922 245.023a1.604 1.604 0 1 0 0-3.208 1.604 1.604 0 0 0 0 3.208ZM23.346 141.957a1.604 1.604 0 1 0 0-3.208 1.604 1.604 0 0 0 0 3.208ZM23.346 150.588a1.605 1.605 0 1 0-.001-3.21 1.605 1.605 0 0 0 .001 3.21ZM27.661 146.272a1.604 1.604 0 1 0 0-3.208 1.604 1.604 0 0 0 0 3.208ZM31.976 141.957a1.604 1.604 0 1 0 .001-3.208 1.604 1.604 0 0 0 0 3.208ZM31.976 167.793a1.605 1.605 0 1 0 0-3.21 1.605 1.605 0 0 0 0 3.21ZM36.236 163.478a1.605 1.605 0 1 0-.001-3.21 1.605 1.605 0 0 0 .001 3.21ZM40.551 159.218a1.605 1.605 0 1 0-.001-3.21 1.605 1.605 0 0 0 .001 3.21ZM44.867 154.903a1.605 1.605 0 1 0-.002-3.21 1.605 1.605 0 0 0 .002 3.21ZM49.181 150.588a1.605 1.605 0 1 0 0-3.21 1.605 1.605 0 0 0 0 3.21ZM36.236 172.108a1.604 1.604 0 1 0 0-3.208 1.604 1.604 0 0 0 0 3.208ZM40.551 167.793a1.605 1.605 0 1 0-.001-3.21 1.605 1.605 0 0 0 .001 3.21ZM49.181 159.218a1.605 1.605 0 1 0 0-3.21 1.605 1.605 0 0 0 0 3.21ZM53.497 154.903a1.605 1.605 0 1 0-.001-3.21 1.605 1.605 0 0 0 0 3.21ZM27.661 163.478a1.605 1.605 0 1 0-.001-3.21 1.605 1.605 0 0 0 .001 3.21ZM31.976 159.218a1.605 1.605 0 1 0 0-3.21 1.605 1.605 0 0 0 0 3.21ZM36.236 154.903a1.605 1.605 0 1 0-.001-3.21 1.605 1.605 0 0 0 .001 3.21ZM40.551 150.588a1.605 1.605 0 1 0-.001-3.21 1.605 1.605 0 0 0 .001 3.21ZM44.867 146.272a1.604 1.604 0 1 0 0-3.208 1.604 1.604 0 0 0 0 3.208ZM23.346 159.218a1.605 1.605 0 1 0-.001-3.21 1.605 1.605 0 0 0 .001 3.21ZM27.661 154.903a1.605 1.605 0 1 0-.001-3.21 1.605 1.605 0 0 0 .001 3.21ZM31.976 150.588a1.605 1.605 0 1 0 0-3.21 1.605 1.605 0 0 0 0 3.21ZM36.236 146.272a1.604 1.604 0 1 0 0-3.208 1.604 1.604 0 0 0 0 3.208ZM40.551 141.957a1.604 1.604 0 1 0 0-3.208 1.604 1.604 0 0 0 0 3.208ZM40.551 176.423a1.604 1.604 0 1 0 0-3.208 1.604 1.604 0 0 0 0 3.208ZM57.812 159.218a1.605 1.605 0 1 0-.001-3.21 1.605 1.605 0 0 0 0 3.21ZM11.23 40.828a1.604 1.604 0 1 0 0-3.209 1.604 1.604 0 0 0 0 3.209ZM11.23 49.403a1.604 1.604 0 1 0 0-3.209 1.604 1.604 0 0 0 0 3.209ZM15.546 45.088a1.604 1.604 0 1 0 0-3.209 1.604 1.604 0 0 0 0 3.209ZM19.86 40.828a1.604 1.604 0 1 0 0-3.209 1.604 1.604 0 0 0 0 3.209ZM19.86 66.663a1.604 1.604 0 1 0 0-3.208 1.604 1.604 0 0 0 0 3.209ZM24.176 62.348a1.604 1.604 0 1 0 0-3.208 1.604 1.604 0 0 0 0 3.208ZM28.435 58.033a1.604 1.604 0 1 0 0-3.208 1.604 1.604 0 0 0 0 3.208ZM32.75 53.718a1.604 1.604 0 1 0 0-3.209 1.604 1.604 0 0 0 0 3.209ZM37.066 49.403a1.604 1.604 0 1 0 0-3.209 1.604 1.604 0 0 0 0 3.209ZM24.176 70.923a1.604 1.604 0 1 0 0-3.208 1.604 1.604 0 0 0 0 3.208ZM28.435 66.663a1.604 1.604 0 1 0 0-3.208 1.604 1.604 0 0 0 0 3.209ZM37.066 58.033a1.604 1.604 0 1 0 0-3.208 1.604 1.604 0 0 0 0 3.208ZM41.381 53.718a1.604 1.604 0 1 0 0-3.209 1.604 1.604 0 0 0 0 3.209ZM15.546 62.348a1.604 1.604 0 1 0 0-3.208 1.604 1.604 0 0 0 0 3.208ZM19.86 58.033a1.604 1.604 0 1 0 0-3.208 1.604 1.604 0 0 0 0 3.208ZM24.176 53.718a1.604 1.604 0 1 0 0-3.209 1.604 1.604 0 0 0 0 3.209ZM28.435 49.403a1.604 1.604 0 1 0 0-3.209 1.604 1.604 0 0 0 0 3.209ZM32.75 45.088a1.604 1.604 0 1 0 0-3.209 1.604 1.604 0 0 0 0 3.209ZM11.23 58.033a1.604 1.604 0 1 0 0-3.208 1.604 1.604 0 0 0 0 3.208ZM15.546 53.718a1.604 1.604 0 1 0 0-3.209 1.604 1.604 0 0 0 0 3.209ZM19.86 49.403a1.604 1.604 0 1 0 0-3.209 1.604 1.604 0 0 0 0 3.209ZM24.176 45.088a1.604 1.604 0 1 0 0-3.209 1.604 1.604 0 0 0 0 3.209ZM28.435 40.828a1.604 1.604 0 1 0 0-3.209 1.604 1.604 0 0 0 0 3.209ZM28.435 75.238a1.604 1.604 0 1 0 0-3.208 1.604 1.604 0 0 0 0 3.208ZM45.696 58.033a1.604 1.604 0 1 0 0-3.208 1.604 1.604 0 0 0 0 3.208Z"
    fill="#4FBFA3" fill-opacity=".2"/>
  <path
    d="M89.677 7.524a1.604 1.604 0 1 0 0-3.209 1.604 1.604 0 0 0 0 3.209ZM93.993 3.209a1.604 1.604 0 1 0 0-3.209 1.604 1.604 0 0 0 0 3.209ZM89.677 16.099a1.604 1.604 0 1 0 0-3.209 1.604 1.604 0 0 0 0 3.209ZM93.993 11.784a1.604 1.604 0 1 0 0-3.21 1.604 1.604 0 0 0 0 3.21ZM98.308 7.524a1.604 1.604 0 1 0 0-3.209 1.604 1.604 0 0 0 0 3.209ZM102.622 3.209a1.605 1.605 0 1 0 0-3.21 1.605 1.605 0 0 0 0 3.21ZM89.677 33.36a1.604 1.604 0 1 0 0-3.21 1.604 1.604 0 0 0 0 3.21ZM93.993 29.044a1.604 1.604 0 1 0 0-3.208 1.604 1.604 0 0 0 0 3.208ZM98.308 24.73a1.604 1.604 0 1 0 0-3.21 1.604 1.604 0 0 0 0 3.21ZM102.622 20.414a1.605 1.605 0 1 0 0-3.21 1.605 1.605 0 0 0 0 3.21ZM106.882 16.099a1.605 1.605 0 1 0 0-3.21 1.605 1.605 0 0 0 0 3.21ZM111.198 11.784a1.604 1.604 0 1 0 0-3.209 1.604 1.604 0 0 0 0 3.209ZM115.513 7.524a1.604 1.604 0 1 0 0-3.208 1.604 1.604 0 0 0 0 3.208ZM119.828 3.209a1.604 1.604 0 1 0 0-3.208 1.604 1.604 0 0 0 0 3.208ZM93.993 37.62a1.604 1.604 0 1 0 0-3.21 1.604 1.604 0 0 0 0 3.21ZM98.308 33.36a1.604 1.604 0 1 0 0-3.21 1.604 1.604 0 0 0 0 3.21ZM102.622 29.044a1.605 1.605 0 1 0 0-3.21 1.605 1.605 0 0 0 0 3.21ZM106.882 24.73a1.605 1.605 0 1 0 0-3.21 1.605 1.605 0 0 0 0 3.21ZM111.198 20.414a1.604 1.604 0 1 0 0-3.208 1.604 1.604 0 0 0 0 3.208ZM115.513 16.099a1.604 1.604 0 1 0 0-3.208 1.604 1.604 0 0 0 0 3.208ZM119.828 11.784a1.604 1.604 0 1 0 0-3.209 1.604 1.604 0 0 0 0 3.209ZM124.143 7.524a1.604 1.604 0 1 0 0-3.208 1.604 1.604 0 0 0 0 3.208ZM89.677 24.73a1.604 1.604 0 1 0 0-3.21 1.604 1.604 0 0 0 0 3.21ZM93.993 20.414a1.604 1.604 0 1 0 0-3.209 1.604 1.604 0 0 0 0 3.209ZM98.308 16.099a1.604 1.604 0 1 0 0-3.209 1.604 1.604 0 0 0 0 3.209ZM102.622 11.784a1.605 1.605 0 1 0 0-3.21 1.605 1.605 0 0 0 0 3.21ZM106.882 7.524a1.605 1.605 0 1 0 0-3.21 1.605 1.605 0 0 0 0 3.21ZM111.198 3.209a1.604 1.604 0 1 0 0-3.208 1.604 1.604 0 0 0 0 3.208ZM106.882 50.565a1.605 1.605 0 1 0 0-3.21 1.605 1.605 0 0 0 0 3.21ZM111.198 46.25a1.604 1.604 0 1 0 0-3.209 1.604 1.604 0 0 0 0 3.209ZM115.513 41.934a1.604 1.604 0 1 0 0-3.208 1.604 1.604 0 0 0 0 3.208ZM119.828 37.62a1.604 1.604 0 1 0 0-3.209 1.604 1.604 0 0 0 0 3.208ZM124.143 33.36a1.604 1.604 0 1 0 0-3.209 1.604 1.604 0 0 0 0 3.208ZM128.458 29.044a1.605 1.605 0 1 0 0-3.21 1.605 1.605 0 0 0 0 3.21ZM132.718 24.73a1.604 1.604 0 1 0 0-3.21 1.604 1.604 0 0 0 0 3.21ZM137.033 20.414a1.604 1.604 0 1 0 0-3.208 1.604 1.604 0 0 0 0 3.208ZM111.198 54.88a1.604 1.604 0 1 0 0-3.208 1.604 1.604 0 0 0 0 3.208ZM115.513 50.565a1.604 1.604 0 1 0 0-3.209 1.604 1.604 0 0 0 0 3.209ZM119.828 46.25a1.604 1.604 0 1 0 0-3.209 1.604 1.604 0 0 0 0 3.209ZM132.718 33.36a1.604 1.604 0 1 0 0-3.209 1.604 1.604 0 0 0 0 3.208ZM137.033 29.044a1.604 1.604 0 1 0 0-3.208 1.604 1.604 0 0 0 0 3.208ZM141.348 24.73a1.604 1.604 0 1 0 0-3.21 1.604 1.604 0 0 0 0 3.21ZM102.622 46.25a1.605 1.605 0 1 0 0-3.21 1.605 1.605 0 0 0 0 3.21ZM106.882 41.934a1.605 1.605 0 1 0 0-3.21 1.605 1.605 0 0 0 0 3.21ZM111.198 37.62a1.604 1.604 0 1 0 0-3.209 1.604 1.604 0 0 0 0 3.208ZM115.513 33.36a1.604 1.604 0 1 0 0-3.209 1.604 1.604 0 0 0 0 3.208ZM119.828 29.044a1.604 1.604 0 1 0 0-3.208 1.604 1.604 0 0 0 0 3.208ZM124.143 24.73a1.604 1.604 0 1 0 0-3.21 1.604 1.604 0 0 0 0 3.21ZM128.458 20.414a1.605 1.605 0 1 0 0-3.21 1.605 1.605 0 0 0 0 3.21ZM132.718 16.099a1.604 1.604 0 1 0 0-3.208 1.604 1.604 0 0 0 0 3.208ZM98.308 41.934a1.604 1.604 0 1 0 0-3.208 1.604 1.604 0 0 0 0 3.208ZM102.622 37.62a1.605 1.605 0 1 0 0-3.21 1.605 1.605 0 0 0 0 3.21ZM106.882 33.36a1.605 1.605 0 1 0 0-3.21 1.605 1.605 0 0 0 0 3.21ZM111.198 29.044a1.604 1.604 0 1 0 0-3.208 1.604 1.604 0 0 0 0 3.208ZM115.513 24.73a1.604 1.604 0 1 0 0-3.21 1.604 1.604 0 0 0 0 3.21ZM119.828 20.414a1.604 1.604 0 1 0 0-3.208 1.604 1.604 0 0 0 0 3.208ZM124.143 16.099a1.604 1.604 0 1 0 0-3.208 1.604 1.604 0 0 0 0 3.208ZM128.458 11.784a1.605 1.605 0 1 0 0-3.21 1.605 1.605 0 0 0 0 3.21ZM119.828 63.455a1.604 1.604 0 1 0 0-3.208 1.604 1.604 0 0 0 0 3.208ZM149.978 33.36a1.605 1.605 0 1 0 0-3.21 1.605 1.605 0 0 0 0 3.21ZM115.513 59.195a1.604 1.604 0 1 0 0-3.208 1.604 1.604 0 0 0 0 3.208ZM119.828 54.88a1.604 1.604 0 1 0 0-3.208 1.604 1.604 0 0 0 0 3.208ZM141.348 33.36a1.604 1.604 0 1 0 0-3.209 1.604 1.604 0 0 0 0 3.208ZM145.663 29.044a1.604 1.604 0 1 0 .001-3.208 1.604 1.604 0 0 0-.001 3.208Z"
    fill="#fff" fill-opacity=".2"/>
  <path
    d="M126.19 229.975a1.605 1.605 0 1 0 0-3.21 1.605 1.605 0 0 0 0 3.21ZM130.505 225.66a1.605 1.605 0 1 0 0-3.21 1.605 1.605 0 0 0 0 3.21ZM134.821 221.345a1.604 1.604 0 1 0 0-3.208 1.604 1.604 0 0 0 0 3.208ZM139.08 217.085a1.605 1.605 0 1 0 0-3.21 1.605 1.605 0 0 0 0 3.21ZM143.396 212.77a1.604 1.604 0 1 0 0-3.208 1.604 1.604 0 0 0 0 3.208ZM147.711 208.455a1.605 1.605 0 1 0-.001-3.21 1.605 1.605 0 0 0 .001 3.21ZM152.026 204.14a1.605 1.605 0 1 0-.001-3.21 1.605 1.605 0 0 0 .001 3.21ZM156.341 199.824a1.605 1.605 0 1 0 0-3.21 1.605 1.605 0 0 0 0 3.21ZM126.19 238.605a1.605 1.605 0 1 0 0-3.21 1.605 1.605 0 0 0 0 3.21ZM130.505 234.29a1.605 1.605 0 1 0 0-3.21 1.605 1.605 0 0 0 0 3.21ZM134.821 229.975a1.604 1.604 0 1 0 0-3.208 1.604 1.604 0 0 0 0 3.208ZM139.08 225.66a1.605 1.605 0 1 0 0-3.21 1.605 1.605 0 0 0 0 3.21ZM143.396 221.345a1.604 1.604 0 1 0 0-3.208 1.604 1.604 0 0 0 0 3.208ZM147.711 217.085a1.604 1.604 0 1 0 0-3.208 1.604 1.604 0 0 0 0 3.208ZM152.026 212.77a1.604 1.604 0 1 0 0-3.208 1.604 1.604 0 0 0 0 3.208ZM156.341 208.455a1.606 1.606 0 1 0-.001-3.211 1.606 1.606 0 0 0 .001 3.211ZM160.656 204.14a1.605 1.605 0 1 0-.001-3.21 1.605 1.605 0 0 0 .001 3.21ZM164.916 199.824a1.604 1.604 0 1 0 0-3.208 1.604 1.604 0 0 0 0 3.208ZM126.19 221.345a1.605 1.605 0 1 0 0-3.21 1.605 1.605 0 0 0 0 3.21ZM130.505 217.085a1.605 1.605 0 1 0 0-3.21 1.605 1.605 0 0 0 0 3.21ZM134.821 212.77a1.604 1.604 0 1 0 0-3.208 1.604 1.604 0 0 0 0 3.208ZM139.08 208.455a1.606 1.606 0 1 0-.001-3.211 1.606 1.606 0 0 0 .001 3.211ZM143.396 204.14a1.605 1.605 0 1 0-.001-3.21 1.605 1.605 0 0 0 .001 3.21ZM147.711 199.824a1.604 1.604 0 1 0 0-3.208 1.604 1.604 0 0 0 0 3.208ZM126.19 204.14a1.606 1.606 0 1 0-.001-3.211 1.606 1.606 0 0 0 .001 3.211ZM130.505 199.824a1.605 1.605 0 1 0 0-3.21 1.605 1.605 0 0 0 0 3.21ZM126.19 212.77a1.605 1.605 0 1 0 0-3.21 1.605 1.605 0 0 0 0 3.21ZM130.505 208.455a1.606 1.606 0 1 0-.001-3.211 1.606 1.606 0 0 0 .001 3.211ZM134.821 204.14a1.605 1.605 0 1 0-.001-3.21 1.605 1.605 0 0 0 .001 3.21ZM139.08 199.824a1.605 1.605 0 1 0 0-3.21 1.605 1.605 0 0 0 0 3.21ZM134.821 247.18a1.604 1.604 0 1 0 0-3.208 1.604 1.604 0 0 0 0 3.208ZM139.08 242.921a1.606 1.606 0 1 0-.001-3.211 1.606 1.606 0 0 0 .001 3.211ZM143.396 238.605a1.604 1.604 0 1 0 0-3.208 1.604 1.604 0 0 0 0 3.208ZM147.711 234.29a1.604 1.604 0 1 0 0-3.208 1.604 1.604 0 0 0 0 3.208ZM152.026 229.975a1.604 1.604 0 1 0 0-3.208 1.604 1.604 0 0 0 0 3.208ZM156.341 225.66a1.605 1.605 0 1 0 0-3.21 1.605 1.605 0 0 0 0 3.21ZM160.656 221.345a1.604 1.604 0 1 0 0-3.208 1.604 1.604 0 0 0 0 3.208ZM164.916 217.085a1.604 1.604 0 1 0 0-3.208 1.604 1.604 0 0 0 0 3.208ZM169.231 212.77a1.605 1.605 0 1 0 0-3.21 1.605 1.605 0 0 0 0 3.21ZM173.546 208.455a1.606 1.606 0 1 0-.001-3.211 1.606 1.606 0 0 0 .001 3.211ZM139.08 251.496a1.606 1.606 0 1 0-.001-3.211 1.606 1.606 0 0 0 .001 3.211ZM143.396 247.18a1.604 1.604 0 1 0 0-3.208 1.604 1.604 0 0 0 0 3.208ZM147.711 242.921a1.605 1.605 0 1 0-.001-3.21 1.605 1.605 0 0 0 .001 3.21ZM152.026 238.605a1.604 1.604 0 1 0 0-3.208 1.604 1.604 0 0 0 0 3.208ZM156.341 234.29a1.605 1.605 0 1 0 0-3.21 1.605 1.605 0 0 0 0 3.21ZM160.656 229.975a1.604 1.604 0 1 0 0-3.208 1.604 1.604 0 0 0 0 3.208ZM164.916 225.66a1.604 1.604 0 1 0 0-3.208 1.604 1.604 0 0 0 0 3.208ZM169.231 221.345a1.605 1.605 0 1 0 0-3.21 1.605 1.605 0 0 0 0 3.21ZM173.546 217.085a1.605 1.605 0 1 0 0-3.21 1.605 1.605 0 0 0 0 3.21ZM177.862 212.77a1.604 1.604 0 1 0 0-3.208 1.604 1.604 0 0 0 0 3.208ZM130.505 242.921a1.606 1.606 0 1 0-.001-3.211 1.606 1.606 0 0 0 .001 3.211ZM134.821 238.605a1.604 1.604 0 1 0 0-3.208 1.604 1.604 0 0 0 0 3.208ZM139.08 234.29a1.605 1.605 0 1 0 0-3.21 1.605 1.605 0 0 0 0 3.21ZM143.396 229.975a1.604 1.604 0 1 0 0-3.208 1.604 1.604 0 0 0 0 3.208ZM147.711 225.66a1.604 1.604 0 1 0 0-3.208 1.604 1.604 0 0 0 0 3.208ZM152.026 221.345a1.604 1.604 0 1 0 0-3.208 1.604 1.604 0 0 0 0 3.208ZM156.341 217.085a1.605 1.605 0 1 0 0-3.21 1.605 1.605 0 0 0 0 3.21ZM160.656 212.77a1.604 1.604 0 1 0 0-3.208 1.604 1.604 0 0 0 0 3.208ZM164.916 208.455a1.605 1.605 0 1 0-.001-3.21 1.605 1.605 0 0 0 .001 3.21ZM169.231 204.14a1.606 1.606 0 1 0-.001-3.211 1.606 1.606 0 0 0 .001 3.211ZM152.026 264.441a1.604 1.604 0 1 0 0-3.208 1.604 1.604 0 0 0 0 3.208ZM156.341 260.126a1.605 1.605 0 1 0 0-3.21 1.605 1.605 0 0 0 0 3.21ZM160.656 255.811a1.605 1.605 0 1 0-.001-3.21 1.605 1.605 0 0 0 .001 3.21ZM164.916 251.496a1.605 1.605 0 1 0-.001-3.21 1.605 1.605 0 0 0 .001 3.21ZM177.862 238.605a1.604 1.604 0 1 0 0-3.208 1.604 1.604 0 0 0 0 3.208ZM182.177 234.29a1.604 1.604 0 1 0 0-3.208 1.604 1.604 0 0 0 0 3.208ZM186.492 229.975a1.604 1.604 0 1 0 0-3.208 1.604 1.604 0 0 0 0 3.208ZM190.751 225.66a1.605 1.605 0 1 0 0-3.21 1.605 1.605 0 0 0 0 3.21ZM156.341 268.756a1.605 1.605 0 1 0 0-3.21 1.605 1.605 0 0 0 0 3.21ZM160.656 264.441a1.604 1.604 0 1 0 0-3.208 1.604 1.604 0 0 0 0 3.208ZM164.916 260.126a1.604 1.604 0 1 0 0-3.208 1.604 1.604 0 0 0 0 3.208ZM186.492 238.605a1.604 1.604 0 1 0 0-3.208 1.604 1.604 0 0 0 0 3.208ZM190.751 234.29a1.605 1.605 0 1 0 0-3.21 1.605 1.605 0 0 0 0 3.21ZM195.067 229.975a1.604 1.604 0 1 0 0-3.208 1.604 1.604 0 0 0 0 3.208ZM147.711 260.126a1.604 1.604 0 1 0 0-3.208 1.604 1.604 0 0 0 0 3.208ZM152.026 255.811a1.605 1.605 0 1 0-.001-3.21 1.605 1.605 0 0 0 .001 3.21ZM156.341 251.496a1.606 1.606 0 1 0-.001-3.211 1.606 1.606 0 0 0 .001 3.211ZM160.656 247.18a1.604 1.604 0 1 0 0-3.208 1.604 1.604 0 0 0 0 3.208ZM164.916 242.921a1.605 1.605 0 1 0-.001-3.21 1.605 1.605 0 0 0 .001 3.21ZM169.231 238.605a1.605 1.605 0 1 0 0-3.21 1.605 1.605 0 0 0 0 3.21ZM173.546 234.29a1.605 1.605 0 1 0 0-3.21 1.605 1.605 0 0 0 0 3.21ZM177.862 229.975a1.604 1.604 0 1 0 0-3.208 1.604 1.604 0 0 0 0 3.208ZM182.177 225.66a1.604 1.604 0 1 0 0-3.208 1.604 1.604 0 0 0 0 3.208ZM186.492 221.345a1.604 1.604 0 1 0 0-3.208 1.604 1.604 0 0 0 0 3.208ZM143.396 255.811a1.605 1.605 0 1 0-.001-3.21 1.605 1.605 0 0 0 .001 3.21ZM147.711 251.496a1.605 1.605 0 1 0-.001-3.21 1.605 1.605 0 0 0 .001 3.21ZM152.026 247.18a1.604 1.604 0 1 0 0-3.208 1.604 1.604 0 0 0 0 3.208ZM156.341 242.921a1.606 1.606 0 1 0-.001-3.211 1.606 1.606 0 0 0 .001 3.211ZM160.656 238.605a1.604 1.604 0 1 0 0-3.208 1.604 1.604 0 0 0 0 3.208ZM164.916 234.29a1.604 1.604 0 1 0 0-3.208 1.604 1.604 0 0 0 0 3.208ZM169.231 229.975a1.605 1.605 0 1 0 0-3.21 1.605 1.605 0 0 0 0 3.21ZM173.546 225.66a1.605 1.605 0 1 0 0-3.21 1.605 1.605 0 0 0 0 3.21ZM177.862 221.345a1.604 1.604 0 1 0 0-3.208 1.604 1.604 0 0 0 0 3.208ZM182.177 217.085a1.604 1.604 0 1 0 0-3.208 1.604 1.604 0 0 0 0 3.208ZM164.916 277.331a1.604 1.604 0 1 0 0-3.208 1.604 1.604 0 0 0 0 3.208ZM203.697 238.605a1.604 1.604 0 1 0 0-3.208 1.604 1.604 0 0 0 0 3.208ZM160.656 273.016a1.604 1.604 0 1 0 0-3.208 1.604 1.604 0 0 0 0 3.208ZM164.916 268.756a1.604 1.604 0 1 0 0-3.208 1.604 1.604 0 0 0 0 3.208ZM195.067 238.605a1.604 1.604 0 1 0 0-3.208 1.604 1.604 0 0 0 0 3.208ZM199.382 234.29a1.604 1.604 0 1 0 0-3.208 1.604 1.604 0 0 0 0 3.208Z"
    fill="#4FBFA3" fill-opacity=".2"/>
</svg>
