<svg width="32" height="32" viewBox="0 0 32 32" fill="none" xmlns="http://www.w3.org/2000/svg">
  <path
    d="M16.0003 29.3332C17.7516 29.3354 19.4861 28.9916 21.1041 28.3214C22.722 27.6512 24.1916 26.6678 25.4283 25.4278C26.6683 24.1911 27.6517 22.7216 28.3219 21.1036C28.9921 19.4856 29.3359 17.7511 29.3337 15.9998C29.3359 14.2486 28.992 12.5141 28.3218 10.8961C27.6516 9.27816 26.6683 7.80859 25.4283 6.57185C24.1916 5.33187 22.722 4.34851 21.1041 3.67831C19.4861 3.0081 17.7516 2.66425 16.0003 2.66652C14.2491 2.66428 12.5146 3.00815 10.8966 3.67836C9.27865 4.34856 7.80907 5.3319 6.57234 6.57185C5.33238 7.80859 4.34905 9.27816 3.67884 10.8961C3.00864 12.5141 2.66477 14.2486 2.667 15.9998C2.66473 17.7511 3.00858 19.4856 3.67879 21.1036C4.349 22.7216 5.33235 24.1911 6.57234 25.4278C7.80907 26.6678 9.27865 27.6511 10.8966 28.3213C12.5146 28.9915 14.2491 29.3354 16.0003 29.3332Z"
    fill="#98A2B3" stroke="#98A2B3" stroke-width="4" stroke-linejoin="round"/>
  <path fill-rule="evenodd" clip-rule="evenodd"
        d="M16.0007 24.6663C16.4427 24.6663 16.8666 24.4907 17.1792 24.1782C17.4917 23.8656 17.6673 23.4417 17.6673 22.9997C17.6673 22.5576 17.4917 22.1337 17.1792 21.8212C16.8666 21.5086 16.4427 21.333 16.0007 21.333C15.5586 21.333 15.1347 21.5086 14.8221 21.8212C14.5096 22.1337 14.334 22.5576 14.334 22.9997C14.334 23.4417 14.5096 23.8656 14.8221 24.1782C15.1347 24.4907 15.5586 24.6663 16.0007 24.6663Z"
        fill="white"/>
  <path d="M16 8V18.6667" stroke="white" stroke-width="3" stroke-linecap="round" stroke-linejoin="round"/>
</svg>
