<svg width="46" height="14" viewBox="0 0 46 14" fill="none" xmlns="http://www.w3.org/2000/svg">
<path fill-rule="evenodd" clip-rule="evenodd" d="M24.3473 3.21037L24.1474 1.46138C22.3053 0.846615 19.3208 0.518598 17.7359 2.02168C15.5653 4.00275 16.2794 9.01721 20.6204 9.11294C22.8052 9.19483 23.719 8.64835 24.8472 8.32034C24.7329 8.211 24.5901 8.04721 24.5615 7.91043L24.5759 5.99764C24.5901 5.77897 24.7043 5.65601 24.8614 5.492H23.1049C23.2763 5.66963 23.3907 5.76535 23.4049 6.02487L23.4335 8.19739C20.5346 9.15378 18.3784 8.32034 17.9215 6.14782C17.4932 3.14208 18.607 1.59816 21.0487 1.47499C22.6908 1.44776 23.6904 2.0353 24.3473 3.21037Z" fill="#005291"/>
<path fill-rule="evenodd" clip-rule="evenodd" d="M31.6664 0.958776L31.6941 1.8793C31.5005 1.71442 31.2655 1.49467 30.9616 1.49467L28.5436 1.50828V4.29793H30.8927C31.0031 4.29793 31.1137 4.18795 31.1826 4.09179V5.4246C31.1137 5.34227 30.9616 5.16357 30.8787 5.16357H28.5436V8.544H31.2103C31.5972 8.57144 31.9841 8.09044 32.1776 7.9394L31.9566 9.12116H27.1895C27.2586 9.05245 27.4382 8.79142 27.4382 8.55783V1.50828C27.4382 1.19236 27.3001 1.0411 27.1895 0.944946L31.6664 0.958776Z" fill="#005291"/>
<path fill-rule="evenodd" clip-rule="evenodd" d="M41.4043 0.944946L37.9337 8.66998C37.8916 8.82037 37.7792 8.98438 37.498 9.09372L39.2264 9.10755C39.0437 8.98438 39.0016 8.87504 39.0016 8.75187L39.8165 6.71484H42.6828L43.6244 8.69721C43.6665 8.87504 43.5259 8.98438 43.2451 9.12116L45.4791 9.10755C45.2682 8.998 45.1277 8.92971 44.9592 8.66998C44.9592 8.66998 41.4183 0.972389 41.4043 0.944946ZM41.2777 3.07792L40.0695 5.82609L42.458 5.8397C42.458 5.8397 41.2919 3.07792 41.2777 3.07792Z" fill="#005291"/>
<path fill-rule="evenodd" clip-rule="evenodd" d="M5.70163 9.12129C5.77191 9.05257 5.95481 8.79154 5.95481 8.55795V5.01265H1.56524V8.55795C1.56524 8.79154 1.73417 9.05257 1.80445 9.12129H0.102051C0.172328 9.05257 0.34126 8.79154 0.34126 8.55795V1.5084C0.355227 1.19249 0.200484 1.04123 0.102051 0.945068H1.80445C1.70602 1.04123 1.55127 1.19249 1.56524 1.5084V4.28423H5.95481V1.5084C5.95481 1.19249 5.81403 1.04123 5.70163 0.945068H7.418C7.30538 1.04123 7.16482 1.19249 7.16482 1.5084V8.55795C7.16482 8.79154 7.34772 9.05257 7.418 9.12129H5.70163Z" fill="#005291"/>
<path fill-rule="evenodd" clip-rule="evenodd" d="M39.0348 13.0457C39.0473 13.0174 39.0967 12.9325 39.0967 12.8618V11.7304H37.8947V12.8618C37.8947 12.9325 37.9441 13.0174 37.9689 13.0457H37.498C37.5229 13.0174 37.5723 12.9325 37.5723 12.8618V10.6132C37.5723 10.5143 37.5229 10.4577 37.498 10.4294H37.9689C37.9319 10.4577 37.8947 10.5143 37.8947 10.6132V11.4901H39.0967V10.6132C39.0967 10.5143 39.0594 10.4577 39.0348 10.4294H39.4933C39.4685 10.4577 39.4312 10.5143 39.4312 10.6132V12.8618C39.4312 12.9325 39.4809 13.0174 39.4933 13.0457H39.0348Z" fill="#005291"/>
<path fill-rule="evenodd" clip-rule="evenodd" d="M44.4742 10.4294C45.2238 10.4294 45.8117 11.0108 45.8117 11.7375C45.8117 12.4642 45.2238 13.0457 44.4742 13.0457C43.7393 13.0457 43.1514 12.4642 43.1514 11.7375C43.1514 11.0108 43.7393 10.4294 44.4742 10.4294ZM44.4742 10.7347C44.9886 10.7347 45.4149 11.1852 45.4149 11.7375C45.4149 12.3043 44.9886 12.7551 44.4742 12.7551C43.9745 12.7551 43.5482 12.3043 43.5482 11.7375C43.5482 11.1852 43.9745 10.7347 44.4742 10.7347Z" fill="#005291"/>
<path fill-rule="evenodd" clip-rule="evenodd" d="M40.3205 10.4294H40.6211L41.46 12.2112L42.2113 10.4294H42.6873C42.6372 10.4717 42.5995 10.5143 42.5995 10.5849C42.5995 10.5849 42.7625 12.4234 42.825 12.8335C42.8381 12.9187 42.9002 12.9751 42.9753 13.0457H42.2364C42.2991 12.9751 42.3743 12.9275 42.3743 12.8478C42.3743 12.5414 42.2364 11.2073 42.2364 11.2073L41.4605 13.0174L40.634 11.2213C40.634 11.2213 40.4378 12.5459 40.4209 12.8478C40.4172 12.9191 40.471 12.9751 40.5338 13.0317H39.9824C40.0576 12.9891 40.0957 12.9204 40.1077 12.8478C40.1744 12.4376 40.3832 10.5707 40.3832 10.5707C40.3832 10.5424 40.3706 10.4717 40.3205 10.4294Z" fill="#005291"/>
<path fill-rule="evenodd" clip-rule="evenodd" d="M33.9238 9.12568C34.0114 9.05696 34.2389 8.79593 34.2389 8.56235V1.5128C34.2389 1.19688 34.0639 1.04562 33.9238 0.949463H35.7872C35.6471 1.04562 35.4722 1.19688 35.4722 1.5128V8.56235C35.4722 8.79593 35.6996 9.05696 35.7872 9.12568H33.9238Z" fill="#005291"/>
<path fill-rule="evenodd" clip-rule="evenodd" d="M11.5146 6.01732C10.4285 5.16746 9.48139 4.02286 9.10894 1.58542C9.0677 1.35486 8.90254 1.13705 8.72363 0.944946L10.7193 0.957695C10.5267 1.14979 10.334 1.32914 10.334 1.62388C10.4028 2.45646 10.4874 3.77998 12.104 5.31677C12.1752 5.38419 12.3441 5.52205 12.3441 5.52205L11.7848 6.19689C11.7848 6.19689 11.6203 6.09986 11.5146 6.01732Z" fill="#E33E3C"/>
<path fill-rule="evenodd" clip-rule="evenodd" d="M12.104 5.61065C10.8144 6.75914 10.6391 8.28146 11.7314 9.58186C11.9732 9.8699 12.104 9.99544 12.173 10.1193C12.3248 10.3552 12.4215 10.6435 12.394 11.0368C12.7281 10.8062 12.8316 10.1432 12.4905 9.66051C11.7294 8.58376 11.1576 7.52451 12.67 6.31854C13.7878 5.42698 14.9338 4.27395 15.3204 1.60033C15.3616 1.36437 15.5412 1.14158 15.7068 0.944946L13.7053 0.958127C13.8984 1.15455 14.1055 1.33822 14.1055 1.63966C14.0228 2.49147 13.7512 4.14387 12.104 5.61065Z" fill="#18BC2B"/>
<path fill-rule="evenodd" clip-rule="evenodd" d="M12.8591 6.16714C12.8679 6.17743 12.8767 6.1903 12.8811 6.19716C13.2462 6.73951 13.4441 7.34189 13.4265 7.87996C13.3957 8.91665 12.4676 9.45987 12.1905 10.1647C12.0277 10.5703 12.0717 10.861 12.2477 11.4106C11.5571 10.9223 11.6802 10.0764 11.8298 9.67038C12.0541 9.07143 12.7007 8.69757 12.7051 7.79764C12.7051 7.35604 12.5336 7.04049 12.2653 6.69107C12.3796 6.56845 12.516 6.44411 12.67 6.31849C12.7359 6.26918 12.7975 6.21859 12.8591 6.16714Z" fill="#E33E3C"/>
</svg>
