<svg width="181" height="40" viewBox="0 0 181 40" fill="none" xmlns="http://www.w3.org/2000/svg">
<path d="M40.5617 18.2864C40.81 16.89 40.1893 15.4314 39.0101 14.6556C38.1101 14.066 36.9619 13.8798 35.9378 14.2211C35.8137 14.2522 35.6895 14.3142 35.5344 14.3763C34.9447 14.6556 34.4172 15.09 33.8896 15.4624C32.4621 16.4245 30.507 16.3624 29.0795 15.4004C27.8382 14.5935 27.0934 13.166 27.0934 11.7074C27.0934 10.4661 27.7451 9.5041 28.3037 8.44897C28.4899 8.13865 28.645 7.79728 28.7692 7.45591C29.2657 6.1215 29.2657 4.56985 28.6761 3.23543C28.2416 2.24238 27.4968 1.37345 26.5348 0.814852C23.2453 -1.17126 19.0869 0.659691 18.1559 4.29055C16.6973 10.0006 19.7386 16.3624 24.5177 19.5278C26.8451 21.0794 29.545 21.9483 32.338 22.0414C33.6414 22.0725 34.9758 21.9794 36.2481 21.669C36.5895 21.5759 36.9309 21.4828 37.2722 21.3897C37.7377 21.2346 38.1722 21.0794 38.5756 20.8622C39.5687 20.3346 40.3445 19.5278 40.5617 18.2864ZM38.3894 20.0864C37.4584 20.6139 36.2792 20.8311 35.224 20.8622C33.5793 20.8932 31.9035 20.4588 30.445 19.4657C28.1796 17.9451 26.9072 15.5245 26.7831 13.0108C27.0003 14.0349 27.4968 14.9659 28.3347 15.7107C28.5209 15.8969 28.7381 16.0521 28.9554 16.2072C30.0415 16.921 31.376 17.1692 32.6483 16.921C33.9517 16.6417 34.6654 15.7107 35.8137 15.1521C36.8688 14.6245 37.8308 14.8107 38.5135 15.3693C39.9411 16.4245 40.3445 18.9381 38.3894 20.0864Z" fill="#4FBFA3"/>
<path d="M8.10136 2.95613C6.76694 3.45266 5.80491 4.72502 5.74285 6.1215C5.68078 7.20766 6.11524 8.29381 6.89107 9.00757C6.98417 9.10067 7.1083 9.19377 7.2014 9.25584C7.72896 9.62824 8.38065 9.84547 8.97028 10.1558C10.5219 10.9006 11.4219 12.6384 11.3288 14.3453C11.2357 15.8038 10.3978 17.1693 9.12544 17.914C8.03929 18.5347 6.86003 18.4416 5.71181 18.4726C5.33941 18.4726 4.96702 18.5037 4.62566 18.5657C3.19814 18.814 1.86372 19.5898 1.02583 20.7691C0.374136 21.669 0.00173846 22.7242 0.00173846 23.8103C-0.0913606 27.6584 3.57053 30.3272 7.2014 29.3342C12.8804 27.7515 16.8527 21.9173 17.2251 16.2072C17.4113 13.4453 16.8216 10.6213 15.5182 8.16969C14.8976 7.02146 14.1218 5.9353 13.2528 4.97328C13.0046 4.72502 12.7563 4.47675 12.508 4.22849C12.1667 3.88713 11.7943 3.60783 11.3909 3.35957C10.3668 2.80097 9.28061 2.52167 8.10136 2.95613ZM10.7392 3.94919C11.6702 4.47676 12.446 5.40775 12.9735 6.3077C13.8425 7.70419 14.2769 9.37997 14.1528 11.1489C13.9666 13.8487 12.508 16.1762 10.3978 17.5416C11.1736 16.8589 11.7322 15.9279 11.9494 14.8728C12.0115 14.6246 12.0425 14.3453 12.0736 14.066C12.1667 12.7626 11.7012 11.4592 10.8323 10.4972C9.9323 9.50411 8.78408 9.34894 7.72896 8.63518C6.76693 7.98349 6.42557 7.0525 6.54971 6.18357C6.79797 4.44573 8.75305 2.83201 10.7392 3.94919Z" fill="#4FBFA3"/>
<path d="M11.0805 38.7682C12.1666 39.6682 13.7493 39.8544 15.0216 39.2337C15.9837 38.7682 16.7285 37.8372 16.9457 36.7821C16.9767 36.658 17.0078 36.5028 17.0078 36.3787C17.0698 35.727 16.9457 35.0753 16.8836 34.4236C16.7595 32.6858 17.8146 31.041 19.3352 30.2962C20.6697 29.6445 22.2523 29.6756 23.5247 30.4204C24.6108 31.041 25.1074 32.0961 25.728 33.0892C25.9142 33.3995 26.1315 33.7099 26.3487 33.9892C27.2797 35.1063 28.6141 35.8511 30.0416 36.0063C31.1278 36.1304 32.245 35.9132 33.207 35.3856C36.5586 33.5237 37.0551 29.0239 34.3862 26.3861C30.1968 22.2587 23.1213 21.7311 18.0008 24.2448C15.5182 25.4861 13.3769 27.3791 11.9183 29.7376C11.2356 30.8548 10.677 32.0651 10.2736 33.3064C10.1805 33.6478 10.0874 33.9892 9.9943 34.3305C9.9012 34.796 9.80811 35.2615 9.80811 35.727C9.80811 36.8752 10.0874 37.9304 11.0805 38.7682ZM10.615 35.9753C10.615 34.9201 11.0494 33.7719 11.546 32.8409C12.3218 31.4134 13.5631 30.1721 15.1458 29.3963C17.5974 28.186 20.3283 28.3101 22.5627 29.4583C21.5696 29.117 20.4835 29.117 19.4594 29.4583C19.2111 29.5204 18.9628 29.6445 18.7146 29.7687C17.5353 30.3583 16.6664 31.3824 16.263 32.6237C15.8285 33.8961 16.294 34.9822 16.2319 36.2546C16.1699 37.4028 15.5182 38.1476 14.6803 38.4889C13.0045 39.1406 10.615 38.2407 10.615 35.9753Z" fill="#4FBFA3"/>
<path d="M36.3413 4.53882V2.832H37.0861C37.1792 2.832 37.3033 2.86304 37.3654 2.89407C37.4585 2.9251 37.5206 2.98717 37.5516 3.04924C37.5826 3.1113 37.6137 3.2044 37.6137 3.2975V3.32853C37.6137 3.42163 37.5826 3.51473 37.5516 3.57679C37.4895 3.63886 37.4275 3.70092 37.3654 3.73196V3.76299C37.4275 3.76299 37.4895 3.79403 37.5206 3.82506C37.5516 3.85609 37.5826 3.91816 37.5826 3.98023V4.53882H37.2413V4.01126C37.2413 3.98023 37.2413 3.94919 37.2102 3.91816C37.1792 3.88712 37.1482 3.88712 37.1171 3.88712H36.6206V4.53882H36.3413ZM36.6206 3.60783H37.024C37.1171 3.60783 37.1792 3.5768 37.2102 3.54577C37.2723 3.51473 37.2723 3.45266 37.2723 3.35957V3.32853C37.2723 3.26646 37.2413 3.2044 37.2102 3.14233C37.1482 3.1113 37.0861 3.08027 37.024 3.08027H36.6206V3.60783Z" fill="#4FBFA3"/>
<path d="M36.869 5.53187C35.8449 5.53187 35.0381 4.69398 35.0381 3.70092C35.0381 2.67683 35.876 1.86996 36.869 1.86996C37.8931 1.86996 38.7 2.70786 38.7 3.70092C38.7 4.69398 37.8931 5.53187 36.869 5.53187ZM36.869 2.24236C36.0932 2.24236 35.4415 2.89406 35.4415 3.66989C35.4415 4.44571 36.0932 5.09741 36.869 5.09741C37.6449 5.09741 38.2966 4.44571 38.2966 3.66989C38.2966 2.89406 37.6449 2.24236 36.869 2.24236Z" fill="#4FBFA3"/>
<path d="M46.6445 26.7895V13.2591H49.4065V14.8418H49.8409C50.0892 14.3763 50.5237 13.9418 51.0823 13.5694C51.6409 13.197 52.4167 13.0108 53.3787 13.0108C54.3718 13.0108 55.1786 13.2281 55.7993 13.6315C56.4199 14.0349 56.8854 14.5625 57.1958 15.2142H57.6302C57.9406 14.5935 58.406 14.0659 58.9957 13.6625C59.5853 13.2281 60.4232 13.0419 61.5404 13.0419C62.4093 13.0419 63.1851 13.2281 63.8679 13.5694C64.5506 13.9108 65.0781 14.4694 65.4816 15.1521C65.885 15.8659 66.0712 16.7348 66.0712 17.7589V26.7585H63.2472V17.9761C63.2472 17.1382 63.03 16.5176 62.5645 16.0831C62.13 15.6486 61.4783 15.4004 60.6715 15.4004C59.8025 15.4004 59.0888 15.6797 58.5612 16.2383C58.0337 16.7969 57.7544 17.6037 57.7544 18.6899V26.7585H54.9303V17.9761C54.9303 17.1382 54.7131 16.5176 54.2476 16.0831C53.8132 15.6486 53.1615 15.4004 52.3546 15.4004C51.4857 15.4004 50.7719 15.6797 50.2444 16.2383C49.7168 16.7969 49.4375 17.6037 49.4375 18.6899V26.7585H46.6445V26.7895Z" fill="#fff"/>
<path d="M70.8193 32.2823V29.7997H78.3604C78.8569 29.7997 79.1362 29.5204 79.1362 28.9618V24.8034H78.7017C78.5466 25.1758 78.2983 25.5171 77.9569 25.8585C77.6156 26.1999 77.1811 26.4792 76.5915 26.6964C76.0329 26.9136 75.3191 27.0378 74.4502 27.0378C73.4261 27.0378 72.5262 26.8205 71.7193 26.355C70.9124 25.8895 70.2918 25.2378 69.8263 24.4C69.3608 23.5621 69.1436 22.569 69.1436 21.4208V13.2901H71.9676V21.2035C71.9676 22.3828 72.2469 23.2517 72.8365 23.8103C73.4261 24.3689 74.233 24.6482 75.2881 24.6482C76.4363 24.6482 77.3673 24.2758 78.0811 23.5C78.7948 22.7242 79.1362 21.607 79.1362 20.1484V13.2901H81.9602V29.5825C81.9602 30.4203 81.7119 31.072 81.2464 31.5686C80.7499 32.0651 80.0982 32.3134 79.2603 32.3134H70.8193V32.2823Z" fill="#fff"/>
<path d="M91.6731 27.1929C90.3697 27.1929 89.1904 26.9136 88.1353 26.355C87.0802 25.7964 86.2423 25.0206 85.6527 23.9655C85.032 22.9104 84.7217 21.669 84.7217 20.2105V19.8691C84.7217 18.4106 85.032 17.1693 85.6527 16.1141C86.2733 15.09 87.1112 14.2832 88.1353 13.7246C89.1904 13.166 90.3697 12.8867 91.6731 12.8867C92.9765 12.8867 94.0626 13.135 94.9936 13.6005C95.8936 14.0659 96.6384 14.7176 97.197 15.4935C97.7555 16.2693 98.1279 17.1382 98.2831 18.1002L95.5522 18.6899C95.4591 18.1002 95.2729 17.5416 94.9626 17.0451C94.6833 16.5486 94.2488 16.1452 93.7213 15.8659C93.1937 15.5866 92.511 15.4314 91.7041 15.4314C90.9283 15.4314 90.2145 15.6176 89.5939 15.959C88.9732 16.3003 88.4767 16.8279 88.1043 17.4796C87.7319 18.1623 87.5457 18.9692 87.5457 19.9002V20.1484C87.5457 21.1104 87.7319 21.9173 88.1043 22.6C88.4767 23.2827 88.9732 23.7793 89.5939 24.1206C90.2145 24.462 90.9283 24.6482 91.7041 24.6482C92.8834 24.6482 93.7833 24.3379 94.404 23.7172C95.0246 23.0966 95.4281 22.3207 95.5832 21.3587L98.3141 21.9794C98.0969 22.9103 97.6935 23.7793 97.1349 24.5551C96.5763 25.3309 95.8315 25.9826 94.9315 26.4481C94.0937 26.9446 92.9765 27.1929 91.6731 27.1929Z" fill="#fff"/>
<path d="M107.283 27.1929C105.918 27.1929 104.738 26.9136 103.683 26.355C102.628 25.7964 101.79 24.9896 101.201 23.9655C100.611 22.9104 100.301 21.7001 100.301 20.2725V19.8691C100.301 18.4416 100.611 17.2003 101.201 16.1762C101.79 15.1521 102.628 14.3453 103.683 13.7867C104.738 13.2281 105.949 12.9488 107.283 12.9488C108.649 12.9488 109.828 13.2281 110.914 13.7867C111.969 14.3453 112.807 15.1521 113.397 16.1762C113.986 17.2003 114.297 18.4416 114.297 19.8691V20.2725C114.297 21.7001 113.986 22.9414 113.397 23.9655C112.807 25.0206 111.969 25.7964 110.914 26.355C109.859 26.9136 108.649 27.1929 107.283 27.1929ZM107.283 24.6482C108.525 24.6482 109.549 24.2448 110.324 23.469C111.1 22.6621 111.504 21.5759 111.504 20.1794V19.9312C111.504 18.5347 111.131 17.4175 110.355 16.6417C109.58 15.8348 108.587 15.4624 107.314 15.4624C106.104 15.4624 105.08 15.8659 104.304 16.6417C103.528 17.4485 103.125 18.5347 103.125 19.9312V20.1794C103.125 21.5759 103.528 22.6931 104.304 23.469C105.049 24.2758 106.073 24.6482 107.283 24.6482Z" fill="#fff"/>
<path d="M119.789 26.7895L115.228 13.2591H118.207L121.807 24.7103H122.241L125.841 13.2591H128.82L124.258 26.7895H119.789Z" fill="#fff"/>
<path d="M136.641 27.1929C135.275 27.1929 134.065 26.9136 133.041 26.324C132.017 25.7343 131.21 24.9275 130.651 23.8724C130.062 22.8172 129.782 21.607 129.782 20.2105V19.8691C129.782 18.4726 130.062 17.2313 130.62 16.1762C131.179 15.1211 131.986 14.3142 132.979 13.7246C134.003 13.1349 135.182 12.8557 136.516 12.8557C137.82 12.8557 138.968 13.1349 139.93 13.7246C140.923 14.3142 141.668 15.09 142.226 16.1141C142.785 17.1382 143.064 18.3485 143.064 19.7139V20.7691H132.668C132.699 21.9483 133.103 22.9103 133.848 23.5931C134.592 24.3068 135.554 24.6482 136.672 24.6482C137.727 24.6482 138.534 24.3999 139.061 23.9344C139.589 23.4689 140.023 22.9103 140.302 22.2897L142.63 23.5C142.382 24.0275 142.009 24.5551 141.513 25.1137C141.016 25.6723 140.396 26.1688 139.62 26.5412C138.875 27.0067 137.851 27.1929 136.641 27.1929ZM132.668 18.6588H140.147C140.085 17.6347 139.713 16.8279 139.061 16.2693C138.409 15.6797 137.54 15.4004 136.485 15.4004C135.43 15.4004 134.561 15.6797 133.879 16.2693C133.227 16.8279 132.823 17.6347 132.668 18.6588Z" fill="#fff"/>
<path d="M145.764 26.7895V13.2591H148.526V14.8418H148.961C149.178 14.2832 149.519 13.8487 150.016 13.6005C150.512 13.3212 151.102 13.197 151.816 13.197H153.429V15.7417H151.691C150.792 15.7417 150.016 15.99 149.457 16.4865C148.867 16.9831 148.588 17.7589 148.588 18.814V26.7585H145.764V26.7895Z" fill="#fff"/>
<path d="M155.415 27.1929C154.764 27.1929 154.236 26.9757 153.802 26.5723C153.367 26.1378 153.15 25.6102 153.15 24.9585C153.15 24.3068 153.367 23.7793 153.802 23.3448C154.236 22.9414 154.764 22.7242 155.415 22.7242C156.067 22.7242 156.595 22.9414 157.029 23.3448C157.463 23.7793 157.681 24.3068 157.681 24.9275C157.681 25.5792 157.463 26.1378 157.029 26.5412C156.595 26.9757 156.067 27.1929 155.415 27.1929Z" fill="#fff"/>
<path d="M165.997 27.1929C164.849 27.1929 163.825 26.9136 162.863 26.355C161.901 25.7964 161.156 25.0206 160.598 23.9965C160.039 22.9724 159.76 21.7311 159.76 20.2415V19.8381C159.76 18.3795 160.039 17.1382 160.629 16.0831C161.218 15.059 161.963 14.2521 162.925 13.7246C163.887 13.166 164.911 12.8867 166.028 12.8867C167.332 12.8867 168.356 13.135 169.07 13.6005C169.783 14.0659 170.311 14.6245 170.652 15.2142H171.087V13.2591H173.849V23.5931C173.849 24.1517 174.097 24.431 174.625 24.431H175.773V26.7895H173.383C172.732 26.7895 172.235 26.6033 171.832 26.2309C171.428 25.8585 171.242 25.362 171.242 24.7413V24.5551H170.839C170.497 25.2689 169.939 25.8895 169.225 26.3861C168.418 26.9136 167.363 27.1929 165.997 27.1929ZM166.804 24.7103C168.046 24.7103 169.07 24.3068 169.845 23.531C170.621 22.7552 171.025 21.607 171.025 20.1484V19.9002C171.025 18.4416 170.621 17.3554 169.845 16.5486C169.039 15.7728 168.046 15.3693 166.804 15.3693C165.594 15.3693 164.601 15.7728 163.794 16.5486C162.987 17.3244 162.615 18.4416 162.615 19.9002V20.1484C162.615 21.607 163.018 22.7242 163.794 23.531C164.601 24.3379 165.594 24.7103 166.804 24.7103Z" fill="#fff"/>
<path d="M177.852 26.7895V13.2591H180.676V26.7895H177.852Z" fill="#fff"/>
</svg>
